<svg width="133" height="48" viewBox="0 0 133 48" fill="none" xmlns="http://www.w3.org/2000/svg">
<rect width="133" height="48" rx="24" fill="black"/>
<path d="M37.2981 17.12H32.9581V14.84H44.1581V17.12H39.8181V29H37.2981V17.12ZM45.3559 25.04C45.4359 25.76 45.7159 26.32 46.1959 26.72C46.6759 27.12 47.2559 27.32 47.9359 27.32C48.5359 27.32 49.0359 27.2 49.4359 26.96C49.8493 26.7067 50.2093 26.3933 50.5159 26.02L52.2359 27.32C51.6759 28.0133 51.0493 28.5067 50.3559 28.8C49.6626 29.0933 48.9359 29.24 48.1759 29.24C47.4559 29.24 46.7759 29.12 46.1359 28.88C45.4959 28.64 44.9426 28.3 44.4759 27.86C44.0093 27.42 43.6359 26.8933 43.3559 26.28C43.0893 25.6533 42.9559 24.96 42.9559 24.2C42.9559 23.44 43.0893 22.7533 43.3559 22.14C43.6359 21.5133 44.0093 20.98 44.4759 20.54C44.9426 20.1 45.4959 19.76 46.1359 19.52C46.7759 19.28 47.4559 19.16 48.1759 19.16C48.8426 19.16 49.4493 19.28 49.9959 19.52C50.5559 19.7467 51.0293 20.08 51.4159 20.52C51.8159 20.96 52.1226 21.5067 52.3359 22.16C52.5626 22.8 52.6759 23.54 52.6759 24.38V25.04H45.3559ZM50.2759 23.24C50.2626 22.5333 50.0426 21.98 49.6159 21.58C49.1893 21.1667 48.5959 20.96 47.8359 20.96C47.1159 20.96 46.5426 21.1667 46.1159 21.58C45.7026 21.9933 45.4493 22.5467 45.3559 23.24H50.2759ZM54.9603 13.88H57.3603V29H54.9603V13.88ZM60.1751 13.88H62.5751V29H60.1751V13.88ZM80.0084 29H77.7284V27.46H77.6884C77.4618 27.94 77.1151 28.36 76.6484 28.72C76.1818 29.0667 75.5484 29.24 74.7484 29.24C74.1084 29.24 73.5618 29.14 73.1084 28.94C72.6684 28.7267 72.3084 28.4467 72.0284 28.1C71.7484 27.74 71.5484 27.3333 71.4284 26.88C71.3084 26.4267 71.2484 25.9533 71.2484 25.46V19.4H73.6484V24.26C73.6484 24.5267 73.6618 24.8267 73.6884 25.16C73.7151 25.48 73.7818 25.7867 73.8884 26.08C74.0084 26.36 74.1818 26.6 74.4084 26.8C74.6484 26.9867 74.9818 27.08 75.4084 27.08C75.8084 27.08 76.1418 27.0133 76.4084 26.88C76.6884 26.7467 76.9151 26.5667 77.0884 26.34C77.2751 26.1133 77.4084 25.8533 77.4884 25.56C77.5684 25.2667 77.6084 24.96 77.6084 24.64V19.4H80.0084V29ZM87.8528 22.06C87.3861 21.4067 86.7595 21.08 85.9728 21.08C85.6528 21.08 85.3395 21.16 85.0328 21.32C84.7261 21.48 84.5728 21.74 84.5728 22.1C84.5728 22.3933 84.6995 22.6067 84.9528 22.74C85.2061 22.8733 85.5261 22.9867 85.9128 23.08C86.2995 23.1733 86.7128 23.2733 87.1528 23.38C87.6061 23.4733 88.0261 23.6267 88.4128 23.84C88.7995 24.04 89.1195 24.32 89.3728 24.68C89.6261 25.04 89.7528 25.5333 89.7528 26.16C89.7528 26.7333 89.6261 27.22 89.3728 27.62C89.1328 28.0067 88.8128 28.32 88.4128 28.56C88.0261 28.8 87.5861 28.9733 87.0928 29.08C86.5995 29.1867 86.1061 29.24 85.6128 29.24C84.8661 29.24 84.1795 29.1333 83.5528 28.92C82.9261 28.7067 82.3661 28.32 81.8728 27.76L83.4728 26.26C83.7795 26.6067 84.1061 26.8933 84.4528 27.12C84.8128 27.3333 85.2461 27.44 85.7528 27.44C85.9261 27.44 86.1061 27.42 86.2928 27.38C86.4795 27.34 86.6528 27.2733 86.8128 27.18C86.9728 27.0867 87.0995 26.9733 87.1928 26.84C87.2995 26.6933 87.3528 26.5267 87.3528 26.34C87.3528 26.0067 87.2261 25.76 86.9728 25.6C86.7195 25.44 86.3995 25.3133 86.0128 25.22C85.6261 25.1133 85.2061 25.02 84.7528 24.94C84.3128 24.8467 83.8995 24.7067 83.5128 24.52C83.1261 24.32 82.8061 24.0467 82.5528 23.7C82.2995 23.3533 82.1728 22.8733 82.1728 22.26C82.1728 21.7267 82.2795 21.2667 82.4928 20.88C82.7195 20.48 83.0128 20.1533 83.3728 19.9C83.7328 19.6467 84.1461 19.46 84.6128 19.34C85.0795 19.22 85.5528 19.16 86.0328 19.16C86.6728 19.16 87.3061 19.2733 87.9328 19.5C88.5595 19.7133 89.0661 20.0867 89.4528 20.62L87.8528 22.06Z" fill="white"/>
</svg>
