<svg width="155" height="179" viewBox="0 0 155 179" fill="none" xmlns="http://www.w3.org/2000/svg">
<g clip-path="url(#clip0)">
<path d="M154.91 177.632H94.1111V177.15H155L154.91 177.632Z" fill="#3F3D56"/>
<path d="M118.851 168.189H115.548V175.055H118.851V168.189Z" fill="#FBBEBE"/>
<path d="M144.563 168.418H141.26V175.284H144.563V168.418Z" fill="#FBBEBE"/>
<path d="M144.917 171.736L140.907 171.278L130.528 124.818L119.205 171.507L115.194 171.05C114.533 149.924 116.467 128.789 118.143 111.201L142.086 109.255C146.598 126.587 146.783 148.157 144.917 171.736Z" fill="#2F2E41"/>
<path d="M142.427 112.004C142.427 112.004 136.85 117.65 140.002 119.061C143.154 120.473 145.094 112.71 145.094 112.71L142.427 112.004Z" fill="#FBBEBE"/>
<path d="M113.884 112.462C113.884 112.462 108.307 118.108 111.459 119.519C114.611 120.93 116.551 113.167 116.551 113.167L113.884 112.462Z" fill="#FBBEBE"/>
<path d="M130.881 71.6064C134.529 71.6064 137.486 68.7373 137.486 65.1981C137.486 61.6589 134.529 58.7898 130.881 58.7898C127.233 58.7898 124.276 61.6589 124.276 65.1981C124.276 68.7373 127.233 71.6064 130.881 71.6064Z" fill="#FBBEBE"/>
<path d="M138.548 78.5869L126.753 79.7313C127.843 74.9696 128.108 70.521 126.753 66.6858H135.009C134.561 69.8816 136.237 74.084 138.548 78.5869Z" fill="#FBBEBE"/>
<path d="M141.85 111.773C137.443 116.916 128.182 115.197 117.553 111.544C120.569 101.992 120.102 91.9155 117.391 81.5002C117.244 80.9404 117.305 80.348 117.564 79.8276C117.823 79.3073 118.263 78.8925 118.807 78.6567L127.461 74.925L130.763 75.6116L136.425 74.2384L144.461 75.8333C145.115 75.963 145.699 76.3157 146.107 76.8273C146.515 77.3389 146.722 77.9755 146.688 78.6218C146.016 91.4057 144.827 103.237 141.85 111.773Z" fill="#F5F5F5"/>
<path d="M144.209 115.892L142.086 112.459L146.096 97.8118L143.973 75.8405C145.343 75.9734 146.633 76.5253 147.658 77.4165C148.683 78.3077 149.389 79.492 149.675 80.7983L152.896 95.5298C153.381 97.7505 153.09 100.065 152.068 102.107L144.209 115.892Z" fill="#F5F5F5"/>
<path d="M116.61 113.375L111.774 114.176L114.858 84.8891C114.887 83.4277 115.36 82.0071 116.217 80.8049C117.074 79.6027 118.277 78.6721 119.676 78.1292V78.1292L121.21 97.4685L116.61 113.375Z" fill="#F5F5F5"/>
<path d="M117.595 177.454L108.694 178.971C108.29 179.04 107.874 178.985 107.503 178.816V178.816C107.209 178.681 106.954 178.479 106.76 178.226C106.566 177.973 106.438 177.679 106.389 177.367C106.339 177.056 106.37 176.737 106.477 176.44C106.584 176.142 106.764 175.875 107.003 175.661L110.816 172.238L111.81 170.553C112.089 170.065 112.488 169.651 112.971 169.347C113.455 169.044 114.007 168.861 114.581 168.813C116.281 168.699 116.842 169.954 116.486 172.311C117.777 173.232 117.982 173.091 118.851 171.851L119.245 175.736C119.2 176.157 119.015 176.553 118.717 176.863C118.419 177.173 118.025 177.381 117.595 177.454Z" fill="#2F2E41"/>
<path d="M143.307 177.454L134.406 178.971C134.002 179.04 133.586 178.985 133.215 178.816V178.816C132.922 178.681 132.666 178.479 132.472 178.226C132.278 177.973 132.151 177.679 132.101 177.367C132.052 177.056 132.082 176.737 132.189 176.44C132.296 176.142 132.477 175.875 132.715 175.661L136.528 172.238L137.522 170.553C137.802 170.065 138.201 169.651 138.684 169.347C139.167 169.044 139.72 168.861 140.293 168.813C141.993 168.699 142.554 169.954 142.199 172.311C143.49 173.232 143.694 173.091 144.563 171.851L144.958 175.736C144.912 176.157 144.727 176.553 144.429 176.863C144.131 177.173 143.738 177.381 143.307 177.454V177.454Z" fill="#2F2E41"/>
<path d="M125.637 61.5468C128.615 59.8942 131.596 60.9501 134.582 65.4592L135.193 70.2625C139.675 66.1429 139.448 60.5209 134.422 58.2342C133.928 58.0094 133.449 57.7538 132.911 57.8441C131.848 57.2907 130.608 57.1516 129.443 57.4552C128.278 57.7588 127.276 58.4823 126.642 59.478C125.714 59.634 124.383 61.424 124.43 62.3372L125.637 61.5468Z" fill="#2F2E41"/>
<path d="M134.302 66.5714C134.758 66.5714 135.127 66.1102 135.127 65.5414C135.127 64.9726 134.758 64.5115 134.302 64.5115C133.846 64.5115 133.476 64.9726 133.476 65.5414C133.476 66.1102 133.846 66.5714 134.302 66.5714Z" fill="#FBBEBE"/>
<path d="M35.7153 114.434H49.4601C49.4601 115.83 48.8885 117.169 47.871 118.156C46.8535 119.143 45.4735 119.698 44.0345 119.698H41.1409C39.7019 119.698 38.3219 119.143 37.3044 118.156C36.287 117.169 35.7153 115.83 35.7153 114.434H35.7153Z" fill="#3F3D56"/>
<path d="M52.6718 102.648V97.7567C52.6718 91.8458 59.2977 86.2549 63.5959 82.2661C69.6547 76.6467 72.8395 69.0971 72.8395 60.2532C72.8394 52.483 69.6637 45.03 64.0086 39.528C58.3535 34.0261 50.6805 30.9243 42.6718 30.9027C34.6632 30.8811 26.9725 33.9414 21.2859 39.4127C15.5993 44.884 12.3809 52.3198 12.3363 60.0899C12.3361 60.1443 12.3361 60.1987 12.3363 60.2532C12.3363 68.7811 15.6577 76.8424 21.5798 82.2661C25.855 86.1815 32.504 91.7847 32.504 97.7567V102.648" fill="#3F3D56"/>
<path d="M52.6719 103.335C52.579 103.335 52.4869 103.317 52.4011 103.283C52.3152 103.248 52.2372 103.198 52.1715 103.134C52.1058 103.07 52.0536 102.994 52.0181 102.911C51.9825 102.828 51.9642 102.739 51.9642 102.648V97.7566C51.9642 92.0063 57.8095 86.6382 62.0776 82.7186C62.4318 82.3932 62.7762 82.0769 63.1069 81.77C69.0111 76.2938 72.1319 68.8534 72.1319 60.2532C72.1319 44.1799 59.1547 31.5892 42.588 31.5892C42.5603 31.5891 42.5324 31.5891 42.5046 31.5891C34.7082 31.5976 27.2324 34.6007 21.7118 39.9419C16.1911 45.283 13.0747 52.5277 13.044 60.0918V60.2517C13.044 68.6745 16.3323 76.5159 22.0657 81.7669C22.3562 82.0331 22.6579 82.3071 22.9676 82.5883C27.2908 86.5155 33.2118 91.8936 33.2118 97.7566V102.648C33.2118 102.831 33.1372 103.005 33.0045 103.134C32.8718 103.263 32.6918 103.335 32.5041 103.335C32.3164 103.335 32.1364 103.263 32.0037 103.134C31.871 103.005 31.7964 102.831 31.7964 102.648V97.7566C31.7964 92.4893 26.1344 87.3462 22.0003 83.5907C21.6891 83.3082 21.386 83.0328 21.0941 82.7655C15.0787 77.2561 11.6287 69.0508 11.6287 60.2532V60.0885C11.6761 43.5997 25.5192 30.2158 42.5025 30.2158C42.5327 30.2158 42.5599 30.2158 42.59 30.2159C46.6614 30.1954 50.6967 30.9584 54.4623 32.4606C58.2279 33.9629 61.6491 36.1747 64.528 38.968C67.4069 41.7614 69.6863 45.0808 71.2344 48.7343C72.7826 52.3879 73.5687 56.303 73.5472 60.2532C73.5472 69.2374 70.2752 77.021 64.0851 82.7626C63.7528 83.0708 63.4066 83.3889 63.0505 83.7158C58.9691 87.464 53.3796 92.5972 53.3796 97.7566V102.648C53.3796 102.739 53.3613 102.828 53.3257 102.911C53.2902 102.994 53.238 103.07 53.1723 103.134C53.1066 103.198 53.0286 103.248 52.9427 103.283C52.8569 103.317 52.7648 103.335 52.6719 103.335Z" fill="#3F3D56"/>
<path d="M49.3104 112.145H35.8653C35.5524 112.145 35.2524 112.025 35.0312 111.81C34.8101 111.596 34.6858 111.305 34.6858 111.001C34.6858 110.698 34.8101 110.406 35.0312 110.192C35.2524 109.977 35.5524 109.857 35.8653 109.857H49.3104C49.6232 109.857 49.9232 109.977 50.1444 110.192C50.3656 110.406 50.4899 110.698 50.4899 111.001C50.4899 111.305 50.3656 111.596 50.1444 111.81C49.9232 112.025 49.6232 112.145 49.3104 112.145V112.145Z" fill="#3F3D56"/>
<path d="M11.3079 33.2787C11.0227 33.279 10.7472 33.1787 10.5327 32.9964L0.403651 24.4181C0.286805 24.3194 0.191168 24.1992 0.12221 24.0645C0.0532518 23.9299 0.0123244 23.7834 0.00176476 23.6334C-0.0087949 23.4833 0.0112182 23.3328 0.0606662 23.1903C0.110114 23.0478 0.188025 22.9161 0.289944 22.8028C0.391863 22.6896 0.515793 22.5969 0.654648 22.5301C0.793504 22.4633 0.94456 22.4238 1.09919 22.4137C1.25382 22.4036 1.40898 22.4231 1.55581 22.4712C1.70265 22.5193 1.83827 22.595 1.95492 22.694L12.084 31.2723C12.2649 31.4255 12.3932 31.6287 12.452 31.8546C12.5107 32.0805 12.4969 32.3184 12.4126 32.5365C12.3282 32.7546 12.1772 32.9425 11.9798 33.0751C11.7824 33.2078 11.548 33.2788 11.3079 33.2787H11.3079Z" fill="#F5F5F5"/>
<path d="M72.1872 33.2787C71.9471 33.2788 71.7127 33.2078 71.5153 33.0751C71.3179 32.9425 71.1669 32.7545 71.0825 32.5364C70.9982 32.3183 70.9844 32.0804 71.0431 31.8545C71.1018 31.6286 71.2302 31.4255 71.4111 31.2723L81.54 22.694C81.7757 22.4948 82.0833 22.3944 82.3952 22.4151C82.7071 22.4358 82.9978 22.5757 83.2033 22.8042C83.4089 23.0327 83.5126 23.331 83.4916 23.6337C83.4706 23.9363 83.3266 24.2184 83.0913 24.4181L72.9624 32.9964C72.7478 33.1787 72.4723 33.279 72.1872 33.2787V33.2787Z" fill="#F5F5F5"/>
<path d="M52.6717 108.084H32.5039C32.1911 108.084 31.8911 107.963 31.6699 107.748C31.4487 107.534 31.3245 107.243 31.3245 106.939C31.3245 106.636 31.4487 106.345 31.6699 106.13C31.8911 105.915 32.1911 105.795 32.5039 105.795H52.6717C52.9845 105.795 53.2845 105.915 53.5057 106.13C53.7269 106.345 53.8512 106.636 53.8512 106.939C53.8512 107.243 53.7269 107.534 53.5057 107.748C53.2845 107.963 52.9845 108.084 52.6717 108.084Z" fill="#3F3D56"/>
<path d="M42.5879 103.793C42.433 103.793 42.2797 103.763 42.1366 103.706C41.9935 103.648 41.8634 103.564 41.7539 103.458C41.6444 103.351 41.5575 103.225 41.4982 103.086C41.439 102.947 41.4084 102.799 41.4084 102.648V76.559C41.4084 76.2555 41.5327 75.9644 41.7539 75.7498C41.9751 75.5352 42.2751 75.4147 42.5879 75.4147C42.9007 75.4147 43.2007 75.5352 43.4219 75.7498C43.6431 75.9644 43.7674 76.2555 43.7674 76.559V102.648C43.7674 102.799 43.7369 102.947 43.6776 103.086C43.6183 103.225 43.5315 103.351 43.4219 103.458C43.3124 103.564 43.1824 103.648 43.0393 103.706C42.8962 103.763 42.7428 103.793 42.5879 103.793V103.793Z" fill="white"/>
<path d="M42.5878 77.7034C38.7769 77.7034 34.0981 74.3584 33.9008 74.2161C33.7765 74.1264 33.6717 74.0138 33.5922 73.8848C33.5128 73.7558 33.4603 73.6128 33.4378 73.4642C33.4153 73.3155 33.4232 73.164 33.4611 73.0182C33.4989 72.8725 33.566 72.7354 33.6584 72.6149C33.7509 72.4943 33.8669 72.3926 33.9999 72.3155C34.1328 72.2384 34.2802 72.1875 34.4334 72.1657C34.5867 72.1439 34.7428 72.1515 34.893 72.1883C35.0432 72.225 35.1845 72.2901 35.3088 72.3797C36.481 73.2236 40.075 75.4147 42.5878 75.4147C45.1007 75.4147 48.6947 73.2236 49.8675 72.3793C49.9918 72.2896 50.1331 72.2246 50.2833 72.1879C50.4335 72.1513 50.5897 72.1436 50.7429 72.1655C50.8962 72.1874 51.0435 72.2383 51.1764 72.3155C51.3094 72.3926 51.4254 72.4943 51.5178 72.6149C51.6102 72.7355 51.6772 72.8726 51.715 73.0183C51.7528 73.1641 51.7607 73.3156 51.7381 73.4643C51.7156 73.613 51.6631 73.7559 51.5836 73.8849C51.5041 74.0139 51.3992 74.1264 51.2749 74.2161C51.0776 74.3584 46.3988 77.7034 42.5878 77.7034Z" fill="white"/>
<path d="M42.5877 21.8558C42.2749 21.8558 41.9749 21.7352 41.7537 21.5206C41.5325 21.306 41.4082 21.0149 41.4082 20.7114V1.14434C41.4082 0.840842 41.5325 0.549775 41.7537 0.335169C41.9749 0.120564 42.2749 0 42.5877 0C42.9005 0 43.2005 0.120564 43.4217 0.335169C43.6429 0.549775 43.7671 0.840842 43.7671 1.14434V20.7114C43.7671 21.0149 43.6429 21.306 43.4217 21.5206C43.2005 21.7352 42.9005 21.8558 42.5877 21.8558V21.8558Z" fill="#F5F5F5"/>
</g>
<defs>
<clipPath id="clip0">
<rect width="155" height="179" fill="white"/>
</clipPath>
</defs>
</svg>
