<svg width="133" height="48" viewBox="0 0 133 48" fill="none" xmlns="http://www.w3.org/2000/svg">
<rect width="133" height="48" rx="24" fill="#FFD600"/>
<path d="M38.9781 14.84H41.1581L47.2581 29H44.3781L43.0581 25.76H36.9181L35.6381 29H32.8181L38.9781 14.84ZM42.1781 23.6L39.9981 17.84L37.7781 23.6H42.1781ZM48.6117 19.4H50.8917V20.84H50.9317C51.2784 20.2533 51.745 19.8267 52.3317 19.56C52.9184 19.2933 53.5517 19.16 54.2317 19.16C54.965 19.16 55.625 19.2933 56.2117 19.56C56.7984 19.8133 57.2984 20.1667 57.7117 20.62C58.125 21.0733 58.4384 21.6067 58.6517 22.22C58.865 22.8333 58.9717 23.4933 58.9717 24.2C58.9717 24.9067 58.8584 25.5667 58.6317 26.18C58.405 26.7933 58.085 27.3267 57.6717 27.78C57.2717 28.2333 56.785 28.5933 56.2117 28.86C55.6384 29.1133 55.0117 29.24 54.3317 29.24C53.8784 29.24 53.4784 29.1933 53.1317 29.1C52.785 29.0067 52.4784 28.8867 52.2117 28.74C51.945 28.5933 51.7184 28.44 51.5317 28.28C51.345 28.1067 51.1917 27.94 51.0717 27.78H51.0117V33.56H48.6117V19.4ZM56.5717 24.2C56.5717 23.8267 56.505 23.4667 56.3717 23.12C56.2517 22.7733 56.065 22.4667 55.8117 22.2C55.5717 21.9333 55.2784 21.72 54.9317 21.56C54.585 21.4 54.1917 21.32 53.7517 21.32C53.3117 21.32 52.9184 21.4 52.5717 21.56C52.225 21.72 51.925 21.9333 51.6717 22.2C51.4317 22.4667 51.245 22.7733 51.1117 23.12C50.9917 23.4667 50.9317 23.8267 50.9317 24.2C50.9317 24.5733 50.9917 24.9333 51.1117 25.28C51.245 25.6267 51.4317 25.9333 51.6717 26.2C51.925 26.4667 52.225 26.68 52.5717 26.84C52.9184 27 53.3117 27.08 53.7517 27.08C54.1917 27.08 54.585 27 54.9317 26.84C55.2784 26.68 55.5717 26.4667 55.8117 26.2C56.065 25.9333 56.2517 25.6267 56.3717 25.28C56.505 24.9333 56.5717 24.5733 56.5717 24.2ZM61.2094 19.4H63.4894V20.84H63.5294C63.876 20.2533 64.3427 19.8267 64.9294 19.56C65.516 19.2933 66.1494 19.16 66.8294 19.16C67.5627 19.16 68.2227 19.2933 68.8094 19.56C69.396 19.8133 69.896 20.1667 70.3094 20.62C70.7227 21.0733 71.036 21.6067 71.2494 22.22C71.4627 22.8333 71.5694 23.4933 71.5694 24.2C71.5694 24.9067 71.456 25.5667 71.2294 26.18C71.0027 26.7933 70.6827 27.3267 70.2694 27.78C69.8694 28.2333 69.3827 28.5933 68.8094 28.86C68.236 29.1133 67.6094 29.24 66.9294 29.24C66.476 29.24 66.076 29.1933 65.7294 29.1C65.3827 29.0067 65.076 28.8867 64.8094 28.74C64.5427 28.5933 64.316 28.44 64.1294 28.28C63.9427 28.1067 63.7894 27.94 63.6694 27.78H63.6094V33.56H61.2094V19.4ZM69.1694 24.2C69.1694 23.8267 69.1027 23.4667 68.9694 23.12C68.8494 22.7733 68.6627 22.4667 68.4094 22.2C68.1694 21.9333 67.876 21.72 67.5294 21.56C67.1827 21.4 66.7894 21.32 66.3494 21.32C65.9094 21.32 65.516 21.4 65.1694 21.56C64.8227 21.72 64.5227 21.9333 64.2694 22.2C64.0294 22.4667 63.8427 22.7733 63.7094 23.12C63.5894 23.4667 63.5294 23.8267 63.5294 24.2C63.5294 24.5733 63.5894 24.9333 63.7094 25.28C63.8427 25.6267 64.0294 25.9333 64.2694 26.2C64.5227 26.4667 64.8227 26.68 65.1694 26.84C65.516 27 65.9094 27.08 66.3494 27.08C66.7894 27.08 67.1827 27 67.5294 26.84C67.876 26.68 68.1694 26.4667 68.4094 26.2C68.6627 25.9333 68.8494 25.6267 68.9694 25.28C69.1027 24.9333 69.1694 24.5733 69.1694 24.2ZM73.847 13.88H76.247V29H73.847V13.88ZM77.7023 19.4H80.3423L83.0223 26.06H83.0623L85.4623 19.4H87.9623L83.4223 31.06C83.249 31.5133 83.0557 31.9067 82.8423 32.24C82.6423 32.5867 82.4023 32.8733 82.1223 33.1C81.8423 33.34 81.509 33.5133 81.1223 33.62C80.749 33.74 80.2957 33.8 79.7623 33.8C79.1357 33.8 78.5223 33.72 77.9223 33.56L78.2223 31.4C78.409 31.4667 78.6023 31.52 78.8023 31.56C79.0157 31.6133 79.229 31.64 79.4423 31.64C79.7357 31.64 79.9823 31.6133 80.1823 31.56C80.3823 31.5067 80.549 31.42 80.6823 31.3C80.829 31.1933 80.949 31.0467 81.0423 30.86C81.1357 30.6867 81.2357 30.4733 81.3423 30.22L81.8023 29.08L77.7023 19.4Z" fill="black"/>
</svg>
