<svg width="270" height="164" viewBox="0 0 270 164" fill="none" xmlns="http://www.w3.org/2000/svg">
<g clip-path="url(#clip0)">
<path d="M205.256 145.917C239.019 145.917 266.39 119.239 266.39 86.3302C266.39 53.4214 239.019 26.7435 205.256 26.7435C171.493 26.7435 144.123 53.4214 144.123 86.3302C144.123 119.239 171.493 145.917 205.256 145.917Z" fill="#F2F2F2"/>
<path d="M33.1673 45.5112C46.0611 45.5112 56.5136 35.3231 56.5136 22.7556C56.5136 10.188 46.0611 0 33.1673 0C20.2735 0 9.82104 10.188 9.82104 22.7556C9.82104 35.3231 20.2735 45.5112 33.1673 45.5112Z" fill="#FF6584"/>
<path d="M75.0464 122.223C108.809 122.223 136.18 95.5451 136.18 62.6363C136.18 29.7275 108.809 3.04962 75.0464 3.04962C41.2833 3.04962 13.9128 29.7275 13.9128 62.6363C13.9128 95.5451 41.2833 122.223 75.0464 122.223Z" fill="#F2F2F2"/>
<path d="M72.1582 125.507C109.245 125.507 139.309 123.932 139.309 121.989C139.309 120.045 109.245 118.47 72.1582 118.47C35.0719 118.47 5.00757 120.045 5.00757 121.989C5.00757 123.932 35.0719 125.507 72.1582 125.507Z" fill="#3F3D56"/>
<path opacity="0.1" d="M58.6798 124.537C86.4613 124.537 108.983 123.45 108.983 122.11C108.983 120.77 86.4613 119.683 58.6798 119.683C30.8983 119.683 8.37695 120.77 8.37695 122.11C8.37695 123.45 30.8983 124.537 58.6798 124.537Z" fill="black"/>
<path d="M202.849 150.374C239.936 150.374 270 148.641 270 146.504C270 144.366 239.936 142.633 202.849 142.633C165.763 142.633 135.699 144.366 135.699 146.504C135.699 148.641 165.763 150.374 202.849 150.374Z" fill="#3F3D56"/>
<path opacity="0.1" d="M189.371 149.307C217.153 149.307 239.674 148.111 239.674 146.637C239.674 145.163 217.153 143.968 189.371 143.968C161.59 143.968 139.068 145.163 139.068 146.637C139.068 148.111 161.59 149.307 189.371 149.307Z" fill="black"/>
<path d="M96.4908 139.583C120.157 139.583 139.343 138.638 139.343 137.472C139.343 136.306 120.157 135.36 96.4908 135.36C72.8242 135.36 53.6387 136.306 53.6387 137.472C53.6387 138.638 72.8242 139.583 96.4908 139.583Z" fill="#3F3D56"/>
<path d="M20.6754 131.453C32.0941 131.453 41.3508 130.997 41.3508 130.434C41.3508 129.871 32.0941 129.415 20.6754 129.415C9.2567 129.415 0 129.871 0 130.434C0 130.997 9.2567 131.453 20.6754 131.453Z" fill="#3F3D56"/>
<path d="M229.354 164C250.606 164 267.834 163.151 267.834 162.104C267.834 161.057 250.606 160.208 229.354 160.208C208.101 160.208 190.873 161.057 190.873 162.104C190.873 163.151 208.101 164 229.354 164Z" fill="#3F3D56"/>
<path d="M225.233 101.579H148.214V146.152H225.233V101.579Z" fill="#3F3D56"/>
<path d="M173.005 141.225C182.575 141.225 190.334 133.663 190.334 124.335C190.334 115.006 182.575 107.444 173.005 107.444C163.434 107.444 155.676 115.006 155.676 124.335C155.676 133.663 163.434 141.225 173.005 141.225Z" fill="#4E69F6"/>
<path d="M201.405 108.617H195.629V114.247H201.405V108.617Z" fill="#4E69F6"/>
<path opacity="0.5" d="M208.626 108.617H202.849V114.247H208.626V108.617Z" fill="#4E69F6"/>
<path opacity="0.2" d="M215.846 108.617H210.07V114.247H215.846V108.617Z" fill="#4E69F6"/>
<path d="M201.405 115.655H195.629V121.285H201.405V115.655Z" fill="#2F2E41"/>
<path opacity="0.5" d="M208.626 115.655H202.849V121.285H208.626V115.655Z" fill="#2F2E41"/>
<path opacity="0.2" d="M215.846 115.655H210.07V121.285H215.846V115.655Z" fill="#2F2E41"/>
<path d="M201.405 122.692H195.629V128.323H201.405V122.692Z" fill="#FF6584"/>
<path opacity="0.5" d="M208.626 122.692H202.849V128.323H208.626V122.692Z" fill="#FF6584"/>
<path opacity="0.2" d="M215.846 122.692H210.07V128.323H215.846V122.692Z" fill="#FF6584"/>
<path opacity="0.5" d="M173.005 107.444V141.225C182.575 141.225 190.815 133.663 190.815 124.335C190.815 115.006 182.575 107.444 173.005 107.444Z" fill="#3F3D56"/>
<path d="M241.719 104.746C241.719 104.746 251.828 109.203 248.218 114.364C244.608 119.525 233.777 129.378 233.536 131.49C233.296 133.601 231.851 135.478 231.851 135.478C231.851 135.478 227.038 130.551 227.519 130.082C228.001 129.613 232.814 125.156 233.055 123.983C233.296 122.81 240.516 113.661 240.516 113.661L234.018 108.03L241.719 104.746Z" fill="#FFB9B9"/>
<path opacity="0.1" d="M241.719 104.746C241.719 104.746 251.828 109.203 248.218 114.364C244.608 119.525 233.777 129.378 233.536 131.49C233.296 133.601 231.851 135.478 231.851 135.478C231.851 135.478 227.038 130.551 227.519 130.082C228.001 129.613 232.814 125.156 233.055 123.983C233.296 122.81 240.516 113.661 240.516 113.661L234.018 108.03L241.719 104.746Z" fill="black"/>
<path d="M228.964 114.599C228.964 114.599 235.943 117.414 235.462 121.871C234.981 126.329 243.886 138.997 243.886 138.997C243.886 138.997 244.849 142.046 244.608 142.985C244.367 143.923 250.866 143.688 250.866 143.688V141.577C250.866 141.577 245.811 133.132 245.33 130.786C244.849 128.44 241.961 119.291 241.961 119.291C241.961 119.291 240.998 111.08 236.184 111.08C234.783 111.08 233.401 111.398 232.148 112.009C230.894 112.619 229.804 113.506 228.964 114.599Z" fill="#FFB9B9"/>
<path d="M229.325 93.3682C229.325 93.3682 243.766 104.863 243.284 105.802C242.803 106.74 235.823 110.259 234.62 110.493C233.416 110.728 224.901 93.3682 224.901 93.3682H229.325Z" fill="#2F2E41"/>
<path opacity="0.1" d="M229.325 93.3682C229.325 93.3682 243.766 104.863 243.284 105.802C242.803 106.74 235.823 110.259 234.62 110.493C233.416 110.728 224.901 93.3682 224.901 93.3682H229.325Z" fill="black"/>
<path d="M213.68 95.7142C213.68 95.7142 212.236 102.048 216.087 104.629C219.938 107.209 226.436 117.297 227.158 117.297C227.88 117.297 238.23 111.901 237.748 110.963C237.267 110.024 231.972 101.814 231.972 101.814L230.287 93.1336C230.287 93.1336 215.606 92.6645 213.68 95.7142Z" fill="#2F2E41"/>
<path d="M229.324 75.0699L231.491 88.6764L235.342 98.2947C235.342 98.2947 241.118 104.16 237.748 104.629C234.379 105.098 232.453 98.2947 232.453 98.2947L229.324 92.6644V75.0699Z" fill="#FFB9B9"/>
<path opacity="0.1" d="M229.324 75.0699L231.491 88.6764L235.342 98.2947C235.342 98.2947 241.118 104.16 237.748 104.629C234.379 105.098 232.453 98.2947 232.453 98.2947L229.324 92.6644V75.0699Z" fill="black"/>
<path d="M221.262 59.9386C221.262 59.9386 221.262 64.8651 219.577 65.3342C217.892 65.8034 226.316 72.1375 226.316 72.1375C226.316 72.1375 225.353 63.9267 228.723 61.8153L221.262 59.9386Z" fill="#FFB9B9"/>
<path opacity="0.1" d="M221.262 59.9386C221.262 59.9386 221.262 64.8651 219.577 65.3342C217.892 65.8034 226.316 72.1375 226.316 72.1375C226.316 72.1375 225.353 63.9267 228.723 61.8153L221.262 59.9386Z" fill="black"/>
<path d="M225.113 63.9267C228.17 63.9267 230.648 61.511 230.648 58.5311C230.648 55.5512 228.17 53.1354 225.113 53.1354C222.055 53.1354 219.577 55.5512 219.577 58.5311C219.577 61.511 222.055 63.9267 225.113 63.9267Z" fill="#FFB9B9"/>
<path d="M225.353 69.7915C225.353 69.7915 220.299 63.692 219.577 63.9266C218.855 64.1612 213.56 69.3223 213.078 70.9644C212.597 72.6066 211.634 84.3363 212.356 86.6822C213.078 89.0282 213.078 95.1276 212.838 95.5968C212.597 96.066 211.153 97.2389 212.597 97.2389C214.041 97.2389 219.096 93.72 222.465 94.4238C225.835 95.1276 230.408 94.1892 230.648 93.72C230.889 93.2508 230.408 81.052 230.648 80.1136C230.889 79.1752 230.167 74.4834 229.926 73.545C229.686 72.6066 229.686 68.8531 227.279 67.9147L226.253 67.8159L226.195 70.1364L225.353 69.7915Z" fill="#4E69F6"/>
<path d="M214.763 81.9904C214.763 81.9904 215.245 89.2628 218.855 92.3125C222.465 95.3622 230.167 100.523 230.648 101.462C231.13 102.4 235.703 107.326 236.665 105.215C236.945 104.557 237.012 103.831 236.858 103.135C236.719 102.443 236.435 101.786 236.025 101.204C235.615 100.623 235.088 100.129 234.475 99.7539L232.333 98.4119L221.743 87.6206L221.262 81.9904H214.763Z" fill="#FFB9B9"/>
<path d="M228.602 129.261C228.602 129.261 225.835 128.675 224.872 130.317C223.909 131.959 225.835 136.416 225.835 136.416C225.835 136.416 231.37 147.677 232.333 146.269C233.296 144.861 231.611 139.7 231.611 139.7C231.611 139.7 234.018 134.539 233.055 134.305C232.092 134.07 228.602 132.076 228.602 129.261Z" fill="#2F2E41"/>
<path d="M245.571 142.75C245.571 142.75 244.127 142.046 243.886 142.75C243.645 143.454 242.201 146.973 243.886 147.442C245.571 147.911 262.178 148.38 261.696 147.442C261.215 146.504 258.568 145.331 256.883 144.861C255.198 144.392 250.866 140.873 250.866 140.873C250.866 140.873 248.459 143.923 245.571 142.75Z" fill="#2F2E41"/>
<path d="M230.689 54.2487C230.585 53.9083 230.356 53.6171 230.046 53.4307C230.062 53.066 230.016 52.7013 229.91 52.3512C229.557 51.332 228.719 51.3904 227.928 50.9398C227.585 50.7443 227.606 50.5715 227.428 50.2504C227.194 49.8295 226.844 49.481 226.416 49.2445C225.909 48.9296 225.374 48.6052 224.774 48.5653C223.513 48.4815 222.546 49.6375 221.341 50.0085C220.81 50.172 220.239 50.1788 219.705 50.3334C219.171 50.488 218.638 50.8571 218.559 51.3945C218.522 51.6426 218.587 51.8971 218.549 52.1452C218.475 52.6381 218.032 52.9834 217.735 53.3889C217.078 54.2855 217.153 55.5523 217.678 56.5278C217.789 56.7297 217.915 56.9229 218.057 57.1056C218.101 57.5667 218.237 58.0151 218.457 58.4254C218.982 59.401 219.886 60.13 220.83 60.7357C220.753 60.4121 220.706 60.0824 220.69 59.7505C220.677 59.6399 220.692 59.5278 220.733 59.4241C220.838 59.2098 221.116 59.1529 221.328 59.0355C221.767 58.7925 221.939 58.2546 221.952 57.7628C221.964 57.271 221.857 56.7784 221.91 56.2891C221.912 56.1766 221.939 56.0658 221.987 55.9638C222.036 55.8618 222.106 55.7708 222.193 55.6968C222.355 55.6068 222.54 55.5638 222.726 55.5729C223.625 55.5372 224.565 55.5211 225.358 55.1067C225.614 54.9411 225.889 54.8055 226.177 54.7028C226.851 54.5315 227.54 54.9919 227.928 55.5555C228.317 56.119 228.51 56.7896 228.869 57.3717C229.227 57.9538 229.846 58.4729 230.539 58.404C230.578 58.4041 230.617 58.3961 230.652 58.3807C230.688 58.3652 230.72 58.3426 230.746 58.3143C230.776 58.262 230.789 58.2022 230.784 58.1425L230.823 55.5608C230.855 55.1193 230.81 54.6755 230.689 54.2487Z" fill="#2F2E41"/>
<path d="M216.929 70.0261C216.929 70.0261 222.225 72.3721 221.984 77.2985C221.743 82.225 223.428 82.6942 219.336 83.1634C215.245 83.6326 214.282 83.1634 214.041 83.6326C213.801 84.1017 212.357 72.8412 213.319 71.6683C214.282 70.4953 216.929 70.0261 216.929 70.0261Z" fill="#4E69F6"/>
<path d="M110.427 30.2626C114.68 30.2626 118.129 26.9016 118.129 22.7556C118.129 18.6096 114.68 15.2486 110.427 15.2486C106.173 15.2486 102.725 18.6096 102.725 22.7556C102.725 26.9016 106.173 30.2626 110.427 30.2626Z" fill="#2F2E41"/>
<path d="M115.602 104.981L111.27 116.476C111.27 116.476 107.659 119.291 109.825 120.229C111.992 121.168 116.324 119.291 116.324 119.291L119.693 110.845L119.212 104.981H115.602Z" fill="#2F2E41"/>
<path opacity="0.1" d="M115.602 104.981L111.27 116.476C111.27 116.476 107.659 119.291 109.825 120.229C111.992 121.168 116.324 119.291 116.324 119.291L119.693 110.845L119.212 104.981H115.602Z" fill="black"/>
<path d="M115.963 36.8312L119.573 37.3004C119.573 37.3004 121.258 50.203 120.536 51.1414C119.814 52.0798 116.203 55.8332 114.759 54.8949C113.315 53.9565 115.963 36.8312 115.963 36.8312Z" fill="#575A89"/>
<path d="M81.4243 60.4078C81.4243 60.4078 76.37 62.5192 75.4073 62.7538C74.4445 62.9884 73.0004 65.3343 74.6852 65.8035C76.37 66.2727 82.8684 61.5808 82.8684 61.5808L81.4243 60.4078Z" fill="#A0616A"/>
<path d="M117.287 109.672L119.934 119.291C119.934 119.291 120.175 122.81 121.378 123.044C122.582 123.279 126.192 121.871 126.192 121.402C126.192 120.933 124.748 117.179 124.748 117.179C124.748 117.179 124.748 114.364 123.304 113.191C121.86 112.018 120.559 108.089 120.559 108.089L117.287 109.672Z" fill="#2F2E41"/>
<path d="M120.656 87.6207C121.142 88.7256 121.082 96.7416 120.55 102.076C120.292 104.669 119.924 106.627 119.452 106.857L116.003 106.017L114.639 105.684L114.603 102.766L114.398 86.6823L110.306 70.0261V65.8035L120.656 66.7418L122.297 69.2543L122.341 69.3224C122.341 69.3224 119.934 85.9785 120.656 87.6207Z" fill="#2F2E41"/>
<path opacity="0.1" d="M118.49 92.7817C119.005 93.5348 119.864 98.0436 120.55 102.076C120.292 104.669 119.924 106.627 119.452 106.857L116.003 106.017C115.95 105.91 115.897 105.797 115.842 105.684C115.402 104.784 114.988 103.789 114.603 102.766L114.398 86.6823L110.306 70.0261V65.8035L120.656 66.7418L122.297 69.2543L112.713 68.6186L114.879 77.7677L117.527 87.3861C117.527 87.3861 117.527 91.3741 118.49 92.7817Z" fill="black"/>
<path d="M101.401 56.4197C101.401 56.4197 98.0319 63.6921 102.846 73.7796C105.824 80.0572 108.475 86.4776 110.788 93.0163C110.788 93.0163 112.473 100.758 114.88 105.684C117.287 110.611 116.805 110.845 116.805 110.845L120.656 108.734C120.656 108.734 118.49 94.1893 117.527 92.7817C116.565 91.3741 116.565 87.386 116.565 87.386L113.917 77.7677L111.751 68.6186L122.341 69.3223C122.341 69.3223 122.341 55.9505 117.527 53.37L101.401 56.4197Z" fill="#2F2E41"/>
<path d="M105.373 26.2745C105.373 26.2745 105.373 30.028 104.169 30.2626C102.966 30.4972 100.559 30.4972 99.8371 31.6701C99.115 32.8431 105.373 48.3263 105.373 48.3263L111.871 44.3382L114.037 33.7815C114.037 33.7815 110.908 31.9047 110.908 30.9663V26.7437L105.373 26.2745Z" fill="#A0616A"/>
<path opacity="0.1" d="M105.373 26.2745C105.373 26.2745 105.373 30.028 104.169 30.2626C102.966 30.4972 100.559 30.4972 99.8371 31.6701C99.115 32.8431 105.373 48.3263 105.373 48.3263L111.871 44.3382L114.037 33.7815C114.037 33.7815 110.908 31.9047 110.908 30.9663V26.7437L105.373 26.2745Z" fill="black"/>
<path d="M109.103 30.3799C112.293 30.3799 114.879 27.8591 114.879 24.7496C114.879 21.6401 112.293 19.1194 109.103 19.1194C105.913 19.1194 103.327 21.6401 103.327 24.7496C103.327 27.8591 105.913 30.3799 109.103 30.3799Z" fill="#A0616A"/>
<path d="M106.095 43.6344C106.095 43.6344 103.928 30.2626 103.447 30.2626C102.966 30.2626 96.2266 31.6701 95.7453 31.9047C95.2639 32.1393 93.5791 34.2507 93.5791 34.2507L96.9487 43.6344C96.9487 43.6344 98.3928 50.203 99.3555 51.376C100.318 52.549 102.244 55.8333 101.281 56.3025C100.318 56.7716 99.3555 57.4754 100.318 57.4754C101.281 57.4754 109.224 56.0679 109.705 56.7716C110.186 57.4754 118.129 54.1911 118.129 53.9565C118.129 53.7219 117.166 42.696 117.166 42.696L119.573 37.3004L112.352 32.3739L106.095 43.6344Z" fill="#575A89"/>
<path d="M95.9858 33.0777L93.5789 34.2507C93.5789 34.2507 86.8398 49.2646 86.3584 49.4992C85.8771 49.7338 83.4702 54.1911 83.2295 55.1295C82.9889 56.0679 82.5075 59.1176 81.7854 59.5868C81.3981 59.8431 80.9964 60.0781 80.582 60.2905C80.582 60.2905 82.0261 62.6365 82.7482 62.6365C83.4702 62.6365 85.8771 59.3522 85.8771 59.3522C85.8771 59.3522 91.1721 62.6365 92.6162 60.0559C94.0603 57.4754 97.6705 41.0539 97.6705 41.0539L95.9858 33.0777Z" fill="#575A89"/>
<path d="M114.88 40.2328C114.88 40.2328 111.51 32.2566 109.585 33.195C107.659 34.1333 111.029 39.7636 113.195 40.702L114.88 40.2328Z" fill="#A0616A"/>
<path opacity="0.1" d="M111.51 40.4673L114.887 39.7233L115.602 43.2825C115.602 43.2825 118.731 48.6781 118.008 51.024C117.286 53.37 112.954 57.1235 111.51 55.0121C110.066 52.9008 108.862 49.6165 109.825 47.7397C110.788 45.863 112.232 41.4057 111.51 40.4673Z" fill="black"/>
<path d="M112.232 39.9982L115.609 39.2541L116.324 42.8133C116.324 42.8133 119.452 48.2089 118.73 50.5549C118.008 52.9008 113.676 56.6543 112.232 54.543C110.788 52.4316 109.584 49.1473 110.547 47.2706C111.51 45.3938 112.954 40.9365 112.232 39.9982Z" fill="#575A89"/>
<path d="M115.899 23.6192C116.547 22.2699 114.731 20.1068 111.842 18.7877C108.953 17.4685 106.085 17.493 105.437 18.8422C104.788 20.1915 106.605 22.3546 109.494 23.6737C112.382 24.9929 115.25 24.9684 115.899 23.6192Z" fill="#2F2E41"/>
<path d="M115 19.7058C116.861 19.7058 118.369 18.2354 118.369 16.4215C118.369 14.6076 116.861 13.1372 115 13.1372C113.139 13.1372 111.63 14.6076 111.63 16.4215C111.63 18.2354 113.139 19.7058 115 19.7058Z" fill="#2F2E41"/>
<path d="M111.871 15.2485C111.871 14.4385 112.178 13.6571 112.734 13.0544C113.289 12.4518 114.053 12.0704 114.879 11.9836C114.409 11.9336 113.933 11.9807 113.482 12.1219C113.031 12.2631 112.616 12.4953 112.264 12.8034C111.912 13.1114 111.63 13.4883 111.437 13.9096C111.244 14.3309 111.144 14.7872 111.144 15.2485C111.144 15.7099 111.244 16.1661 111.437 16.5874C111.63 17.0087 111.912 17.3857 112.264 17.6937C112.616 18.0018 113.031 18.2339 113.482 18.3752C113.933 18.5164 114.409 18.5635 114.879 18.5134C114.053 18.4267 113.289 18.0453 112.734 17.4427C112.178 16.84 111.871 16.0586 111.871 15.2485Z" fill="#2F2E41"/>
<path d="M99.8368 64.9824H15.5977V121.989H99.8368V64.9824Z" fill="#3F3D56"/>
<path d="M33.4081 70.6127H22.3367V81.404H33.4081V70.6127Z" fill="#F2F2F2"/>
<path d="M33.4081 88.2072H22.3367V98.9985H33.4081V88.2072Z" fill="#4E69F6"/>
<path d="M33.4081 105.802H22.3367V116.593H33.4081V105.802Z" fill="#F2F2F2"/>
<path d="M91.4128 74.0143H38.7031V74.9527H91.4128V74.0143Z" fill="#F2F2F2"/>
<path d="M55.0696 77.064H38.7031V78.0023H55.0696V77.064Z" fill="#F2F2F2"/>
<path d="M91.4128 91.6088H38.7031V92.5471H91.4128V91.6088Z" fill="#F2F2F2"/>
<path d="M55.0696 94.6584H38.7031V95.5968H55.0696V94.6584Z" fill="#F2F2F2"/>
<path d="M91.4128 109.203H38.7031V110.142H91.4128V109.203Z" fill="#F2F2F2"/>
<path d="M55.0696 112.253H38.7031V113.191H55.0696V112.253Z" fill="#F2F2F2"/>
<path d="M238.23 156.927C238.23 161.703 235.317 163.37 231.724 163.37C231.641 163.37 231.558 163.369 231.475 163.367C231.309 163.363 231.144 163.356 230.981 163.345C227.738 163.121 225.219 161.368 225.219 156.927C225.219 152.332 231.244 146.533 231.698 146.103L231.698 146.102C231.715 146.085 231.724 146.077 231.724 146.077C231.724 146.077 238.23 152.152 238.23 156.927Z" fill="#4E69F6"/>
<path d="M231.487 162.639L233.867 159.399L231.481 162.995L231.475 163.367C231.309 163.364 231.144 163.356 230.981 163.345L231.237 158.568L231.235 158.53L231.24 158.524L231.264 158.072L228.873 154.467L231.271 157.734L231.277 157.829L231.471 154.22L229.424 150.495L231.496 153.587L231.698 146.103L231.698 146.077V146.102L231.665 152.004L233.703 149.664L231.656 152.512L231.602 155.744L233.506 152.642L231.595 156.219L231.565 158.016L234.327 153.699L231.554 158.643L231.487 162.639Z" fill="#3F3D56"/>
<path d="M27.1506 124.319C27.1506 129.094 24.2384 130.762 20.6454 130.762C20.5622 130.762 20.4789 130.76 20.3963 130.759C20.2299 130.755 20.0646 130.748 19.9017 130.736C16.659 130.513 14.1401 128.76 14.1401 124.319C14.1401 119.724 20.1646 113.925 20.6184 113.494L20.619 113.494C20.6364 113.477 20.6454 113.469 20.6454 113.469C20.6454 113.469 27.1506 119.544 27.1506 124.319Z" fill="#4E69F6"/>
<path d="M20.4081 130.031L22.7875 126.791L20.4021 130.387L20.3961 130.759C20.2297 130.755 20.0644 130.748 19.9016 130.736L20.1578 125.959L20.1561 125.922L20.1602 125.915L20.1848 125.464L17.7935 121.859L20.192 125.125L20.198 125.221L20.3914 121.611L18.3443 117.886L20.4165 120.978L20.6183 113.494L20.6189 113.469V113.494L20.5853 119.395L22.6234 117.055L20.577 119.903L20.5231 123.135L22.4264 120.033L20.5153 123.611L20.4854 125.408L23.2473 121.09L20.4746 126.034L20.4081 130.031Z" fill="#3F3D56"/>
</g>
<defs>
<clipPath id="clip0">
<rect width="270" height="164" fill="white"/>
</clipPath>
</defs>
</svg>
