<svg width="192" height="179" viewBox="0 0 192 179" fill="none" xmlns="http://www.w3.org/2000/svg">
<g clip-path="url(#clip0)">
<path d="M188.423 61.2171L92.1989 0L77.5563 24.8867C81.5109 27.5577 84.3069 31.7282 85.3491 36.5105C86.3913 41.2928 85.5974 46.3092 83.1363 50.492C80.6753 54.6748 76.7414 57.6936 72.1722 58.9059C67.6029 60.1182 62.759 59.4283 58.6716 56.9829L53.9199 65.0589H94.4801V116.13L193.302 179L213.985 143.847H188.423V61.2171Z" fill="#F2F2F2"/>
<path d="M141.091 136.919C150.715 136.919 158.517 135.665 158.517 134.118C158.517 132.571 150.715 131.317 141.091 131.317C131.467 131.317 123.665 132.571 123.665 134.118C123.665 135.665 131.467 136.919 141.091 136.919Z" fill="#F9D100"/>
<path d="M141.654 109.31L159.212 88.4238C160.497 87.0584 161.51 85.4432 162.194 83.6706C162.879 81.8979 163.22 80.0025 163.2 78.0926C163.18 76.1826 162.798 74.2955 162.076 72.539C161.355 70.7824 160.308 69.1909 158.994 67.8552C157.681 66.5196 156.128 65.4659 154.423 64.7544C152.719 64.043 150.896 63.6876 149.059 63.7086C147.222 63.7297 145.408 64.1267 143.718 64.8771C142.029 65.6274 140.499 66.7164 139.214 68.0818C137.901 66.7462 136.348 65.6925 134.643 64.981C132.938 64.2696 131.115 63.9142 129.279 63.9353C127.442 63.9563 125.627 64.3533 123.938 65.1037C122.249 65.854 120.718 66.943 119.434 68.3085C118.149 69.6739 117.136 71.289 116.452 73.0617C115.767 74.8343 115.426 76.7297 115.446 78.6397C115.466 80.5496 115.848 82.4368 116.57 84.1933C117.291 85.9498 118.338 87.5414 119.652 88.877L139.186 109.31" fill="#F9D100"/>
<path d="M95.0286 64.7737H0.27417V154.114H95.0286V64.7737Z" stroke="#B0ADCC" stroke-width="2" stroke-miterlimit="10"/>
<path d="M283.726 54.2214H188.971V143.562H283.726V54.2214Z" stroke="#B0ADCC" stroke-width="2" stroke-miterlimit="10"/>
<path d="M68.4247 53.4114C74.9381 53.4114 80.2182 47.9209 80.2182 41.1479C80.2182 34.375 74.9381 28.8845 68.4247 28.8845C61.9113 28.8845 56.6311 34.375 56.6311 41.1479C56.6311 47.9209 61.9113 53.4114 68.4247 53.4114Z" fill="#F9D100"/>
<path d="M96.4001 107.884C96.4001 107.884 111.211 102.465 117.519 109.88C123.827 117.296 141.38 105.603 141.38 105.603" stroke="#B0ADCC" stroke-width="2" stroke-miterlimit="10"/>
<path d="M216.804 109.88C216.804 109.88 214.062 103.036 195.411 109.31C176.761 115.584 150.431 115.299 143.849 105.602L161.407 84.7163C162.691 83.3508 163.704 81.7357 164.389 79.9631C165.073 78.1904 165.415 76.295 165.394 74.385C165.374 72.4751 164.992 70.588 164.271 68.8314C163.549 67.0749 162.502 65.4834 161.189 64.1477C159.876 62.812 158.322 61.7584 156.618 61.0469C154.913 60.3354 153.09 59.9801 151.253 60.0011C149.417 60.0222 147.602 60.4192 145.913 61.1696C144.223 61.9199 142.693 63.0089 141.408 64.3743C138.756 61.6768 135.183 60.1852 131.473 60.2277C127.763 60.2702 124.222 61.8433 121.628 64.6009C119.034 67.3586 117.599 71.0748 117.64 74.9321C117.681 78.7895 119.194 82.472 121.846 85.1695L141.38 105.602" stroke="#B0ADCC" stroke-width="2" stroke-miterlimit="10"/>
<path d="M143.315 134.591C152.94 134.591 160.742 133.337 160.742 131.79C160.742 130.243 152.94 128.989 143.315 128.989C133.691 128.989 125.889 130.243 125.889 131.79C125.889 133.337 133.691 134.591 143.315 134.591Z" stroke="#B0ADCC" stroke-width="2" stroke-miterlimit="10"/>
<path d="M141.461 153.7C149.038 153.7 155.18 152.712 155.18 151.494C155.18 150.277 149.038 149.289 141.461 149.289C133.885 149.289 127.743 150.277 127.743 151.494C127.743 152.712 133.885 153.7 141.461 153.7Z" fill="#F9D100"/>
<path d="M141.461 169.772C146.581 169.772 150.731 169.105 150.731 168.282C150.731 167.459 146.581 166.792 141.461 166.792C136.342 166.792 132.192 167.459 132.192 168.282C132.192 169.105 136.342 169.772 141.461 169.772Z" fill="#F9D100"/>
<path d="M143.315 151.735C150.892 151.735 157.034 150.748 157.034 149.53C157.034 148.312 150.892 147.325 143.315 147.325C135.739 147.325 129.597 148.312 129.597 149.53C129.597 150.748 135.739 151.735 143.315 151.735Z" stroke="#B0ADCC" stroke-width="2" stroke-miterlimit="10"/>
<path d="M143.315 168.293C148.434 168.293 152.584 167.626 152.584 166.803C152.584 165.98 148.434 165.313 143.315 165.313C138.196 165.313 134.046 165.98 134.046 166.803C134.046 167.626 138.196 168.293 143.315 168.293Z" stroke="#B0ADCC" stroke-width="2" stroke-miterlimit="10"/>
<path d="M55.5663 111.437C60.6032 111.437 64.6864 107.191 64.6864 101.953C64.6864 96.7157 60.6032 92.4698 55.5663 92.4698C50.5295 92.4698 46.4463 96.7157 46.4463 101.953C46.4463 107.191 50.5295 111.437 55.5663 111.437Z" fill="#443FA7"/>
<path d="M51.2128 106.745C51.2128 106.745 48.2423 113.584 47.3935 113.805C46.5448 114.026 54.3956 117.997 54.3956 117.997C54.3956 117.997 55.8808 109.613 56.5174 109.172C57.1539 108.73 51.2128 106.745 51.2128 106.745Z" fill="#9F616A"/>
<path d="M55.6687 111.819C59.0671 111.819 61.822 108.954 61.822 105.421C61.822 101.887 59.0671 99.0221 55.6687 99.0221C52.2703 99.0221 49.5154 101.887 49.5154 105.421C49.5154 108.954 52.2703 111.819 55.6687 111.819Z" fill="#9F616A"/>
<path d="M60.822 154.115H34.6567C35.5317 150.809 36.4669 147.532 36.9935 145.713C37.2596 144.8 37.4214 144.252 37.4214 144.252C37.4214 144.252 57.155 148.664 57.5774 148.887C57.815 149.151 58.0255 149.439 58.2055 149.748C58.8226 150.689 59.8072 152.306 60.822 154.115Z" fill="#443FA7"/>
<path d="M28.2973 91.741L21.9318 81.5917C21.9318 81.5917 23.506 70.945 21.3841 72.9307C19.2623 74.9164 18.5908 82.9354 18.5908 82.9354L25.9633 94.6093L28.2973 91.741Z" fill="#9F616A"/>
<path d="M86.0108 110.275L91.7397 109.833C91.7397 109.833 98.5296 102.332 98.9539 104.759C99.3783 107.186 93.4372 112.481 93.4372 112.481L85.5864 113.363L86.0108 110.275Z" fill="#9F616A"/>
<path d="M44.2108 112.481V110.275C44.2108 110.275 38.694 106.524 38.9062 105.862C39.1184 105.2 38.4818 104.759 38.4818 104.759C38.4818 104.759 37.8453 103.876 37.8453 103.656C37.8453 103.435 36.9965 103.214 36.9965 103.214L31.692 96.8158C31.692 96.8158 28.7214 90.6379 28.0849 90.8586C27.4483 91.0792 24.0534 92.403 24.4777 93.2856C24.9021 94.1681 36.7844 113.143 36.7844 113.143C36.7844 113.143 37.4209 117.335 38.4818 117.335C39.5427 117.335 44.2108 112.481 44.2108 112.481Z" fill="#B0ADCC"/>
<path d="M58.4271 115.129C58.4271 115.129 63.0951 114.908 63.3073 115.129C63.5195 115.349 66.49 115.129 66.49 115.129C66.49 115.129 74.553 113.143 75.1895 112.481C75.8261 111.819 86.4352 108.951 86.8596 110.275C87.284 111.598 88.3449 114.246 87.284 114.687C86.2231 115.129 57.5784 122.63 57.5784 122.63L58.4271 115.129Z" fill="#B0ADCC"/>
<path d="M52.3764 95.8962C54.4606 95.8962 56.1502 94.1393 56.1502 91.972C56.1502 89.8048 54.4606 88.0479 52.3764 88.0479C50.2921 88.0479 48.6025 89.8048 48.6025 91.972C48.6025 94.1393 50.2921 95.8962 52.3764 95.8962Z" fill="#443FA7"/>
<path d="M47.3443 89.8464C47.3444 88.8764 47.6899 87.9408 48.3142 87.2201C48.9384 86.4994 49.7973 86.0446 50.725 85.9435C50.5944 85.9294 50.4632 85.9223 50.3319 85.9222C49.331 85.9222 48.3712 86.3357 47.6634 87.0716C46.9557 87.8075 46.5581 88.8057 46.5581 89.8464C46.5581 90.8872 46.9557 91.8853 47.6634 92.6212C48.3712 93.3572 49.331 93.7706 50.3319 93.7706C50.4632 93.7706 50.5944 93.7635 50.725 93.7494C49.7973 93.6482 48.9384 93.1935 48.3142 92.4727C47.6899 91.752 47.3444 90.8164 47.3443 89.8464Z" fill="#443FA7"/>
<path d="M56.6273 103.867C60.101 103.867 62.917 102.11 62.917 99.9426C62.917 97.7753 60.101 96.0184 56.6273 96.0184C53.1536 96.0184 50.3376 97.7753 50.3376 99.9426C50.3376 102.11 53.1536 103.867 56.6273 103.867Z" fill="#443FA7"/>
<path d="M49.4093 110.164C49.4093 110.164 47.4997 111.709 47.0753 111.929C46.6509 112.15 44.1047 109.944 43.6804 109.944C43.256 109.944 37.7392 116.563 37.7392 116.563C37.7392 116.563 38.7645 117.791 37.7392 124.064C37.3547 126.417 36.5919 136.476 36.5919 137.8C36.5919 139.124 32.4347 142.377 36.254 145.246C40.0733 148.114 58.321 151.203 58.5332 149.438C58.7454 147.673 56.4113 143.039 57.4723 140.833C58.5332 138.626 58.5332 130.463 58.5332 130.463L59.8063 121.858L60.8672 115.018C60.8672 115.018 55.8809 113.584 55.4565 113.584C55.0322 113.584 53.1225 116.673 49.4093 110.164Z" fill="#B0ADCC"/>
</g>
<defs>
<clipPath id="clip0">
<rect width="284" height="179" fill="white"/>
</clipPath>
</defs>
</svg>
