<svg width="252" height="218" viewBox="0 0 252 218" fill="none" xmlns="http://www.w3.org/2000/svg">
<g clip-path="url(#clip0)">
<path d="M186.143 5.18011H177.183C177.595 6.19379 177.753 7.2936 177.641 8.38264C177.53 9.47168 177.153 10.5165 176.545 11.4252C175.936 12.3338 175.114 13.0783 174.152 13.5931C173.189 14.1079 172.114 14.3772 171.023 14.3773H131.7C130.609 14.3772 129.535 14.1079 128.572 13.5931C127.609 13.0783 126.787 12.3338 126.179 11.4252C125.57 10.5165 125.194 9.47168 125.082 8.38264C124.971 7.2936 125.128 6.19379 125.54 5.18011H117.172C115.333 5.18011 113.512 5.54356 111.813 6.24972C110.114 6.95588 108.57 7.99091 107.27 9.29572C105.969 10.6005 104.938 12.1496 104.234 13.8544C103.53 15.5592 103.168 17.3864 103.168 19.2317V197.324C103.168 199.169 103.53 200.996 104.234 202.701C104.938 204.406 105.969 205.955 107.27 207.26C108.57 208.565 110.114 209.6 111.813 210.306C113.512 211.012 115.333 211.375 117.172 211.375H186.143C187.982 211.375 189.803 211.012 191.502 210.306C193.201 209.6 194.745 208.565 196.045 207.26C197.345 205.955 198.377 204.406 199.081 202.701C199.784 200.996 200.147 199.169 200.147 197.324V19.2317C200.147 17.3864 199.784 15.5592 199.081 13.8544C198.377 12.1496 197.345 10.6005 196.045 9.29572C194.745 7.99091 193.201 6.95588 191.502 6.24972C189.803 5.54356 187.982 5.18011 186.143 5.18011Z" fill="#E6E6E6"/>
<path d="M185.387 216.555H116.746C111.699 216.55 106.861 214.535 103.292 210.955C99.7235 207.374 97.7162 202.519 97.7104 197.455V19.1008C97.7162 14.0367 99.7235 9.18165 103.292 5.6008C106.861 2.01994 111.699 0.00570692 116.746 0H185.387C190.433 0.00571533 195.272 2.01996 198.84 5.60082C202.409 9.18169 204.416 14.0367 204.422 19.1008V51.3264H205.605V75.0372H204.422V197.455C204.416 202.519 202.409 207.374 198.84 210.955C195.272 214.535 190.433 216.55 185.387 216.555ZM116.746 0.569522C111.85 0.575057 107.155 2.52923 103.693 6.00332C100.231 9.47741 98.2836 14.1877 98.278 19.1008V197.455C98.2835 202.368 100.231 207.078 103.693 210.552C107.155 214.026 111.85 215.98 116.746 215.986H185.387C190.283 215.98 194.977 214.026 198.439 210.552C201.901 207.078 203.849 202.368 203.854 197.455V74.4677H205.037V51.8959H203.854V19.1008C203.849 14.1877 201.901 9.47748 198.439 6.0034C194.977 2.52932 190.283 0.575115 185.387 0.569522H116.746Z" fill="#AEAEAE"/>
<path d="M79.5049 115.723L84.0456 122.78L98.8119 122.662C98.8119 122.662 105.02 119.144 106.268 123.782C106.695 125.371 100.197 125.801 99.5853 125.838C98.0556 125.931 82.7995 128.587 81.8576 127.227C80.9157 125.867 75.9614 121.115 75.9614 121.115L79.5049 115.723Z" fill="#FFB8B8"/>
<path d="M122.429 33.5075C122.166 33.5078 121.914 33.6129 121.727 33.7998C121.541 33.9866 121.436 34.2399 121.436 34.5042V93.165C121.436 93.4292 121.541 93.6825 121.727 93.8693C121.914 94.0562 122.166 94.1613 122.429 94.1616H180.889C181.152 94.1613 181.405 94.0562 181.591 93.8693C181.777 93.6825 181.882 93.4292 181.882 93.165V34.5042C181.882 34.2399 181.777 33.9866 181.591 33.7998C181.405 33.6129 181.152 33.5078 180.889 33.5075H122.429Z" fill="white"/>
<path d="M175.762 102.558H165.009C164.336 96.5549 165.82 92.0808 165.009 89.6088H175.762C175.349 93.9151 175.349 98.2513 175.762 102.558Z" fill="#4E69F6"/>
<path d="M196.921 117.085H106.394V158.09H196.921V117.085Z" fill="#CCCCCC"/>
<path d="M170.389 63.0914C170.389 66.7984 169.293 70.4221 167.241 73.5044C165.188 76.5866 162.271 78.989 158.858 80.4076C155.445 81.8262 151.689 82.1974 148.066 81.4742C144.443 80.751 141.114 78.9659 138.502 76.3446C135.89 73.7234 134.111 70.3837 133.39 66.7479C132.669 63.1121 133.039 59.3436 134.453 55.9187C135.867 52.4939 138.261 49.5667 141.333 47.5071C144.404 45.4476 148.016 44.3484 151.71 44.3484C154.163 44.3472 156.593 44.8313 158.859 45.7728C161.126 46.7143 163.186 48.0948 164.92 49.8355C166.655 51.5762 168.031 53.6429 168.969 55.9174C169.907 58.1919 170.39 60.6297 170.389 63.0914Z" fill="#4E69F6"/>
<path d="M104.323 114.878C104.135 114.878 103.955 114.953 103.822 115.087C103.689 115.22 103.614 115.401 103.614 115.59V154.887C103.614 155.075 103.689 155.256 103.822 155.39C103.955 155.523 104.135 155.598 104.323 155.599H193.148C193.336 155.598 193.516 155.523 193.649 155.39C193.782 155.256 193.857 155.075 193.857 154.887V115.59C193.857 115.401 193.782 115.22 193.649 115.086C193.516 114.953 193.336 114.878 193.148 114.878H104.323Z" fill="white"/>
<path d="M167.02 123.405C166.908 123.405 166.799 123.45 166.72 123.53C166.64 123.61 166.595 123.719 166.595 123.832V125.903C166.595 126.016 166.64 126.125 166.72 126.205C166.799 126.285 166.908 126.33 167.02 126.33H179.173C179.286 126.33 179.394 126.285 179.474 126.205C179.554 126.125 179.599 126.016 179.599 125.903V123.832C179.599 123.719 179.554 123.61 179.474 123.53C179.394 123.45 179.286 123.405 179.173 123.405H167.02Z" fill="#4E69F6"/>
<path d="M121.005 123.405C120.892 123.405 120.783 123.45 120.704 123.53C120.624 123.61 120.579 123.719 120.579 123.832V125.903C120.579 126.016 120.624 126.125 120.704 126.205C120.783 126.285 120.892 126.33 121.005 126.33H124.545C124.658 126.33 124.766 126.285 124.846 126.205C124.926 126.125 124.97 126.016 124.971 125.903V123.832C124.97 123.719 124.926 123.61 124.846 123.53C124.766 123.45 124.658 123.405 124.545 123.405H121.005Z" fill="#4E69F6"/>
<path d="M111.654 123.405C111.541 123.405 111.433 123.45 111.353 123.53C111.273 123.61 111.228 123.719 111.228 123.832V125.903C111.228 126.016 111.273 126.125 111.353 126.205C111.433 126.285 111.541 126.33 111.654 126.33H115.194C115.307 126.33 115.415 126.285 115.495 126.205C115.575 126.125 115.619 126.016 115.62 125.903V123.832C115.619 123.719 115.575 123.61 115.495 123.53C115.415 123.45 115.307 123.405 115.194 123.405H111.654Z" fill="#4E69F6"/>
<path d="M130.601 123.405C130.489 123.405 130.38 123.45 130.301 123.53C130.221 123.61 130.176 123.719 130.176 123.832V125.903C130.176 126.016 130.221 126.125 130.301 126.205C130.38 126.285 130.489 126.33 130.601 126.33H161.21C161.323 126.33 161.431 126.285 161.511 126.205C161.591 126.125 161.635 126.016 161.636 125.903V123.832C161.635 123.719 161.591 123.61 161.511 123.53C161.431 123.45 161.323 123.405 161.21 123.405H130.601Z" fill="#4E69F6"/>
<path d="M137.737 144.146C137.625 144.146 137.516 144.191 137.437 144.271C137.357 144.351 137.312 144.46 137.312 144.573V146.644C137.312 146.758 137.357 146.866 137.437 146.946C137.516 147.026 137.625 147.071 137.737 147.072H141.278C141.391 147.071 141.499 147.026 141.579 146.946C141.658 146.866 141.703 146.758 141.704 146.644V144.573C141.703 144.46 141.658 144.351 141.579 144.271C141.499 144.191 141.391 144.146 141.278 144.146H137.737Z" fill="#4E69F6"/>
<path d="M128.387 144.146C128.274 144.146 128.166 144.191 128.086 144.271C128.006 144.351 127.961 144.46 127.961 144.573V146.644C127.961 146.758 128.006 146.866 128.086 146.946C128.166 147.026 128.274 147.071 128.387 147.072H131.927C132.04 147.071 132.148 147.026 132.228 146.946C132.308 146.866 132.353 146.758 132.353 146.644V144.573C132.353 144.46 132.308 144.351 132.228 144.271C132.148 144.191 132.04 144.146 131.927 144.146H128.387Z" fill="#4E69F6"/>
<path d="M147.334 144.146C147.222 144.146 147.113 144.191 147.034 144.271C146.954 144.351 146.909 144.46 146.909 144.573V146.644C146.909 146.758 146.954 146.866 147.034 146.946C147.113 147.026 147.222 147.071 147.334 147.072H177.943C178.056 147.071 178.164 147.026 178.244 146.946C178.323 146.866 178.368 146.758 178.368 146.644V144.573C178.368 144.46 178.323 144.351 178.244 144.271C178.164 144.191 178.056 144.146 177.943 144.146H147.334Z" fill="#4E69F6"/>
<path d="M128.879 130.565C128.766 130.566 128.658 130.611 128.578 130.691C128.498 130.771 128.453 130.879 128.453 130.993V133.064C128.453 133.177 128.498 133.285 128.578 133.365C128.658 133.445 128.766 133.491 128.879 133.491H141.032C141.145 133.491 141.253 133.445 141.333 133.365C141.413 133.285 141.457 133.177 141.458 133.064V130.993C141.457 130.879 141.413 130.771 141.333 130.691C141.253 130.611 141.145 130.566 141.032 130.565H128.879Z" fill="#4E69F6"/>
<path d="M110.915 130.565C110.803 130.566 110.694 130.611 110.615 130.691C110.535 130.771 110.49 130.879 110.49 130.993V133.064C110.49 133.177 110.535 133.285 110.615 133.365C110.694 133.445 110.803 133.491 110.915 133.491H123.068C123.181 133.491 123.289 133.445 123.369 133.365C123.449 133.285 123.494 133.177 123.494 133.064V130.993C123.494 130.879 123.449 130.771 123.369 130.691C123.289 130.611 123.181 130.566 123.068 130.565H110.915Z" fill="#4E69F6"/>
<path d="M183.015 130.565C182.902 130.566 182.794 130.611 182.714 130.691C182.635 130.771 182.59 130.879 182.59 130.993V133.064C182.59 133.177 182.635 133.285 182.714 133.365C182.794 133.445 182.902 133.491 183.015 133.491H186.556C186.668 133.491 186.777 133.445 186.856 133.365C186.936 133.285 186.981 133.177 186.981 133.064V130.993C186.981 130.879 186.936 130.771 186.856 130.691C186.777 130.611 186.668 130.566 186.556 130.565H183.015Z" fill="#4E69F6"/>
<path d="M146.596 130.565C146.483 130.566 146.375 130.611 146.295 130.691C146.216 130.771 146.171 130.879 146.171 130.993V133.064C146.171 133.177 146.216 133.285 146.295 133.365C146.375 133.445 146.483 133.491 146.596 133.491H177.205C177.317 133.491 177.426 133.445 177.505 133.365C177.585 133.285 177.63 133.177 177.63 133.064V130.993C177.63 130.879 177.585 130.771 177.505 130.691C177.426 130.611 177.317 130.566 177.205 130.565H146.596Z" fill="#4E69F6"/>
<path d="M156.439 137.479C156.326 137.479 156.218 137.524 156.138 137.604C156.059 137.685 156.014 137.793 156.014 137.906V139.977C156.014 140.091 156.059 140.199 156.138 140.279C156.218 140.359 156.326 140.404 156.439 140.404H168.592C168.705 140.404 168.813 140.359 168.893 140.279C168.973 140.199 169.018 140.091 169.018 139.977V137.906C169.018 137.793 168.973 137.685 168.893 137.604C168.813 137.524 168.705 137.479 168.592 137.479H156.439Z" fill="#4E69F6"/>
<path d="M174.403 137.479C174.29 137.479 174.182 137.524 174.102 137.604C174.022 137.685 173.977 137.793 173.977 137.906V139.977C173.977 140.091 174.022 140.199 174.102 140.279C174.182 140.359 174.29 140.404 174.403 140.404H186.556C186.668 140.404 186.777 140.359 186.856 140.279C186.936 140.199 186.981 140.091 186.981 139.977V137.906C186.981 137.793 186.936 137.685 186.856 137.604C186.777 137.524 186.668 137.479 186.556 137.479H174.403Z" fill="#4E69F6"/>
<path d="M110.915 137.479C110.803 137.479 110.694 137.524 110.615 137.604C110.535 137.685 110.49 137.793 110.49 137.906V139.977C110.49 140.091 110.535 140.199 110.615 140.279C110.694 140.359 110.803 140.404 110.915 140.404H114.456C114.569 140.404 114.677 140.359 114.757 140.279C114.836 140.199 114.881 140.091 114.881 139.977V137.906C114.881 137.793 114.836 137.685 114.757 137.604C114.677 137.524 114.569 137.479 114.456 137.479H110.915Z" fill="#4E69F6"/>
<path d="M120.266 137.479C120.154 137.479 120.045 137.524 119.966 137.604C119.886 137.685 119.841 137.793 119.841 137.906V139.977C119.841 140.091 119.886 140.199 119.966 140.279C120.045 140.359 120.154 140.404 120.266 140.404H150.875C150.988 140.404 151.096 140.359 151.176 140.279C151.255 140.199 151.3 140.091 151.3 139.977V137.906C151.3 137.793 151.255 137.685 151.176 137.604C151.096 137.524 150.988 137.479 150.875 137.479H120.266Z" fill="#4E69F6"/>
<path d="M153.618 54.5104C153.618 54.5104 157.274 53.2003 159.624 58.4407C161.974 63.6812 165.63 69.4457 165.63 69.4457L163.541 69.9697C163.541 69.9697 163.018 66.3014 161.713 65.7774L162.235 70.4938C162.235 70.4938 146.568 75.9963 139.517 69.9697L139.778 68.1356C139.778 68.1356 138.734 68.3976 138.734 69.9697L137.95 69.1837C137.95 69.1837 138.734 67.6115 141.084 65.5154C142.626 64.1395 143.157 61.522 143.339 59.8855C143.475 58.519 144.02 57.2257 144.902 56.1754C146.464 54.3592 149.309 52.4288 153.618 54.5104Z" fill="#2F2E41"/>
<path d="M151.386 70.6756C155.119 70.6756 158.145 67.6389 158.145 63.8929C158.145 60.1468 155.119 57.1101 151.386 57.1101C147.653 57.1101 144.626 60.1468 144.626 63.8929C144.626 67.6389 147.653 70.6756 151.386 70.6756Z" fill="#FFB8B8"/>
<path d="M159.461 64.7158C156.858 62.9993 154.752 61.0222 153.358 58.6703C153.358 58.6703 148.581 63.5067 145.663 63.7485C142.744 63.9904 145.397 57.9449 145.397 57.9449L150.704 56.7358L155.746 57.2194L159.726 59.6376L159.461 64.7158Z" fill="#2F2E41"/>
<path d="M153.929 69.2451H148.821V74.3708H153.929V69.2451Z" fill="#FFB8B8"/>
<path d="M161.404 79.1148C158.313 80.9964 154.744 81.9379 151.131 81.8252C147.517 81.7125 144.014 80.5504 141.045 78.4798C141.668 77.1658 142.649 76.0556 143.874 75.2779C145.1 74.5003 146.52 74.087 147.97 74.0859H154.213C155.78 74.0858 157.31 74.5678 158.596 75.467C159.882 76.3662 160.862 77.6393 161.404 79.1148Z" fill="#2F2E41"/>
<path d="M252 216.844H0V217.483H252V216.844Z" fill="#3F3D56"/>
<path d="M177.873 166.067H188.627C189.299 161.087 187.815 156.438 188.627 153.118H177.873C175.848 157.434 175.848 161.75 177.873 166.067Z" fill="#FF6584"/>
<path d="M169.435 163.713H158.681C159.084 158.734 160.384 154.085 158.681 150.765H169.435C171.459 155.081 171.459 159.397 169.435 163.713Z" fill="#4E69F6"/>
<path d="M81.341 90.0053C81.341 90.0053 85.0364 88.6809 87.4121 93.9783C89.7877 99.2757 93.4831 105.103 93.4831 105.103L91.3714 105.632C91.3714 105.632 90.8435 101.924 89.5237 101.395L90.0517 106.162C90.0517 106.162 74.2141 111.724 67.0872 105.632L67.3511 103.778C67.3511 103.778 66.2953 104.043 66.2953 105.632L65.5034 104.838C65.5034 104.838 66.2953 103.249 68.6709 101.13C70.2302 99.739 70.766 97.093 70.9502 95.4387C71.0881 94.0573 71.6389 92.7501 72.5303 91.6883C74.109 89.8524 76.9856 87.901 81.341 90.0053Z" fill="#2F2E41"/>
<path d="M59.9588 192.123L50.7554 205.816L59.3241 214.414L60.4348 212.185L58.5307 207.727C58.5307 207.727 58.848 203.587 59.9588 202.472C61.0695 201.358 65.9886 194.67 65.9886 194.67L59.9588 192.123Z" fill="#FFB8B8"/>
<path d="M71.7009 147.858C71.7009 147.858 69.9558 150.63 73.6054 162.572C73.6054 162.572 56.582 191.402 59.2795 193.312C61.9771 195.223 69.2769 199.452 71.181 198.178C73.0852 196.904 86.9341 153.749 86.9341 153.749L71.7009 147.858Z" fill="#2F2E41"/>
<path d="M52.4214 203.348L49.6445 206.135C48.2164 207.568 47.2643 209.638 49.9619 211.389C52.6594 213.141 62.0215 219.669 65.1951 217.599C68.3687 215.529 61.3868 213.618 61.3868 213.618C61.3868 213.618 60.2323 209.323 59.6195 210.276C59.0066 211.23 59.0066 213.141 59.0066 213.141L52.4214 203.348Z" fill="#2F2E41"/>
<path d="M85.9822 199.606C85.9822 199.606 91.0599 209.001 91.0599 210.115C91.0599 211.23 90.7426 214.414 90.7426 214.414L100.422 216.803L103.754 215.21L102.644 212.344C102.644 212.344 96.6137 210.274 95.3443 206.294C94.0748 202.313 92.6467 198.173 92.6467 198.173L85.9822 199.606Z" fill="#FFB8B8"/>
<path d="M80.1111 106.141C83.7918 106.141 86.7756 103.147 86.7756 99.4533C86.7756 95.76 83.7918 92.7659 80.1111 92.7659C76.4303 92.7659 73.4465 95.76 73.4465 99.4533C73.4465 103.147 76.4303 106.141 80.1111 106.141Z" fill="#FFB8B8"/>
<path d="M81.8567 105.186L78.6748 114.359L71.7012 111.236C71.7012 111.236 76.4616 103.912 76.4616 102.956L81.8567 105.186Z" fill="#FFB8B8"/>
<path d="M82.8084 137.827H74.3984C74.3984 137.827 68.3686 147.062 71.8595 156.775C72.5151 158.751 73.0477 160.766 73.4545 162.809C74.6726 168.474 75.8854 176.147 77.1283 183.198C78.8741 193.103 80.6793 201.78 82.6417 201.937C86.6087 202.256 94.3228 202.203 94.3228 200.611C94.3228 199.018 89.1556 152.953 89.1556 152.953L88.0448 151.042L87.8349 142.72C87.8017 141.406 87.2568 140.158 86.3171 139.244C85.3773 138.329 84.1177 137.82 82.8084 137.827H82.8084Z" fill="#2F2E41"/>
<path d="M91.1392 210.036C91.1392 210.036 89.3144 213.141 89.7904 215.37C90.2664 217.599 91.0598 217.28 94.5508 217.599C98.0417 217.917 109.943 217.917 109.943 215.688C109.943 213.459 100.659 210.564 100.62 211.454C100.581 212.344 100.263 214.096 101.215 214.414C102.167 214.733 101.295 214.494 101.295 214.494L91.1392 210.036Z" fill="#2F2E41"/>
<path d="M75.0287 142.264C76.2696 142.264 78.9386 139.066 80.3354 140.468C81.3513 141.487 82.2134 142.466 82.9739 143.33C85.1571 145.81 87.0658 148.083 88.3921 146.452C88.5926 146.206 87.9186 146.775 88.4806 146.392C88.7137 146.232 88.8917 146.004 88.9899 145.739C89.0881 145.474 89.1017 145.184 89.0287 144.911C87.1043 138.861 85.9059 133.065 87.4362 128.224C87.5497 127.84 87.604 127.44 87.5971 127.039C87.5972 126.981 87.5999 126.922 87.6052 126.863C87.6861 125.97 87.6658 122.77 84.0123 119.104C80.6732 115.753 80.0326 113.695 79.9482 112.765C79.9283 112.549 74.5457 106.945 74.5457 106.945C74.2639 106.827 73.9503 106.807 73.656 106.89C73.3618 106.973 73.1041 107.153 72.925 107.402L71.2009 109.781C69.3268 113.504 68.5088 117.673 68.8364 121.832C69.3032 127.229 70.1136 137.904 70.7792 141.754C70.8344 142.105 71.0198 142.422 71.2983 142.642C71.4901 142.791 71.7189 142.885 71.9599 142.914C72.201 142.942 72.4452 142.904 72.6665 142.804C73.4069 142.458 74.2121 142.274 75.0287 142.264Z" fill="#2F2E41"/>
<path opacity="0.2" d="M76.9532 183.702L73.8259 162.793L76.3695 185.365L76.9532 183.702Z" fill="black"/>
<path d="M80.9238 121.703L85.4646 128.76L100.231 128.642C100.231 128.642 106.438 125.124 107.687 129.762C108.114 131.351 101.616 131.781 101.004 131.818C99.4746 131.911 84.2185 134.567 83.2765 133.207C82.3346 131.847 77.3804 127.095 77.3804 127.095L80.9238 121.703Z" fill="#FFB8B8"/>
<path d="M74.1332 116.752C74.1332 116.752 76.7114 115.065 80.2512 118.065C83.791 121.064 84.4989 123.748 84.4989 123.748L76.1608 128.721C76.1608 128.721 68.0151 120.018 74.1332 116.752Z" fill="#2F2E41"/>
<path d="M87.2479 99.752C84.6169 98.0168 82.4872 96.0183 81.0784 93.6409C81.0784 93.6409 76.2501 98.5298 73.2995 98.7742C70.3489 99.0187 73.0313 92.9075 73.0313 92.9075L78.3961 91.6853L83.4926 92.1742L87.5161 94.6187L87.2479 99.752Z" fill="#2F2E41"/>
<path d="M73.4765 100.569C73.8684 100.569 74.186 99.995 74.186 99.2873C74.186 98.5796 73.8684 98.0059 73.4765 98.0059C73.0847 98.0059 72.7671 98.5796 72.7671 99.2873C72.7671 99.995 73.0847 100.569 73.4765 100.569Z" fill="#FFB8B8"/>
</g>
<defs>
<clipPath id="clip0">
<rect width="252" height="218" fill="white"/>
</clipPath>
</defs>
</svg>
