<svg width="455" height="299" viewBox="0 0 455 299" fill="none" xmlns="http://www.w3.org/2000/svg">
<path d="M141.591 249.641C141.488 261.608 140.627 273.556 139.015 285.41C138.958 285.827 138.897 286.243 138.84 286.659L28.8318 286.033C28.5088 285.619 28.1908 285.201 27.8828 284.778C26.8558 283.376 25.8932 281.935 25.0095 280.445C20.7623 273.262 18.8178 264.854 20.7663 259.052L20.8012 258.962C21.2218 257.692 21.8846 256.518 22.7515 255.51C27.1941 250.415 36.1766 251.264 44.328 255.376C37.0167 247.223 31.195 236.935 30.7527 227.752C30.319 218.794 34.9164 212.396 39.9029 206.958C40.0666 206.778 40.2301 206.603 40.3937 206.428C40.4731 206.338 40.5573 206.254 40.6365 206.164C44.527 202.02 49.0627 197.934 55.6278 198.429C62.8281 198.972 70.8109 205.116 76.4082 212.275C82.0055 219.43 85.7251 227.558 89.4953 235.49C93.2703 243.417 97.3545 251.547 103.412 258.323C95.2075 247.75 88.5923 235.721 86.1486 224.021C83.705 212.322 85.8556 201.085 93.1679 195.575C95.3879 193.954 97.9567 192.898 100.659 192.496C100.975 192.442 101.295 192.399 101.621 192.361C108.39 191.576 116.472 193.961 123.349 199.662C130.922 205.94 136.172 215.246 138.784 224.08C141.396 232.914 141.675 241.419 141.591 249.641Z" fill="#FF515B"/>
<path d="M69.6168 296.265L67.5133 296.253C66.8453 295.828 66.1742 295.407 65.5 294.992C65.0826 294.723 64.6604 294.465 64.2379 294.201C57.2604 289.86 50.2392 285.696 43.1744 281.708C36.116 277.718 29.0221 273.911 21.8927 270.288C21.7038 270.205 21.5496 270.056 21.457 269.868C21.3644 269.681 21.3393 269.466 21.3859 269.261C21.3936 269.235 21.4054 269.209 21.421 269.186C21.5204 268.996 21.7427 268.917 22.0671 269.08C22.9415 269.526 23.821 269.973 24.6954 270.43C31.8443 274.115 38.9624 277.983 46.0499 282.036C53.1325 286.087 60.1748 290.317 67.1766 294.725C67.3239 294.816 67.4713 294.913 67.6185 295.004C68.2862 295.424 68.9491 295.845 69.6168 296.265Z" fill="white"/>
<path d="M96.7394 296.419L95.4387 296.412C95.1453 295.994 94.857 295.576 94.5636 295.157C87.6706 285.31 80.7791 275.462 73.889 265.615C62.6057 249.493 51.3257 233.371 40.0492 217.25C39.9823 217.163 39.9326 217.064 39.9028 216.958C39.8064 216.601 40.0637 216.391 40.3936 216.428C40.5327 216.449 40.6659 216.499 40.7844 216.576C40.903 216.653 41.004 216.754 41.0809 216.874C47.4069 225.915 53.7314 234.953 60.0542 243.987C71.2788 260.028 82.5018 276.068 93.7231 292.106C94.4369 293.124 95.1506 294.147 95.8644 295.165C96.1577 295.583 96.4511 296.001 96.7394 296.419Z" fill="white"/>
<path d="M125.718 288.724C125.652 290.957 125.507 293.155 125.317 295.332C125.281 295.749 125.244 296.165 125.207 296.581L123.842 296.574C123.884 296.157 123.926 295.741 123.963 295.325C124.251 292.179 124.456 288.998 124.483 285.73C124.52 276.671 123.653 267.631 121.897 258.75C120.03 249.188 117.35 239.809 113.886 230.721C110.251 221.135 105.868 211.861 100.78 202.988C100.684 202.844 100.641 202.669 100.659 202.496C100.716 202.099 101.234 201.982 101.621 202.361C101.697 202.435 101.763 202.52 101.816 202.613C102.446 203.716 103.064 204.822 103.671 205.931C108.571 214.853 112.766 224.159 116.215 233.761C119.5 242.879 121.999 252.272 123.683 261.832C125.261 270.702 125.943 279.713 125.718 288.724Z" fill="white"/>
<path d="M454.661 232.369C454.661 226.994 434.803 222.636 410.308 222.636C385.812 222.636 365.954 226.994 365.954 232.369C365.954 235.814 374.118 238.838 386.425 240.568V293.891C386.425 295.09 386.892 296.239 387.724 297.086C388.556 297.934 389.684 298.41 390.86 298.41C392.037 298.41 393.165 297.934 393.997 297.086C394.828 296.239 395.296 295.09 395.296 293.891V241.528C399.985 241.898 405.038 242.101 410.308 242.101C415.578 242.101 420.63 241.898 425.32 241.528V293.891C425.32 295.09 425.787 296.239 426.619 297.086C427.45 297.934 428.579 298.41 429.755 298.41C430.931 298.41 432.059 297.934 432.891 297.086C433.723 296.239 434.19 295.09 434.19 293.891V240.568C446.497 238.838 454.661 235.814 454.661 232.369Z" fill="#FF515B"/>
<path d="M415.212 143.288C425.764 143.288 434.318 134.573 434.318 123.823C434.318 113.073 425.764 104.359 415.212 104.359C404.66 104.359 396.106 113.073 396.106 123.823C396.106 134.573 404.66 143.288 415.212 143.288Z" fill="#2F2E41"/>
<path d="M367.665 290.362H359.299L355.32 257.489H367.666L367.665 290.362Z" fill="#A0616A"/>
<path d="M353.324 287.927H369.457V298.276H343.166C343.166 296.917 343.428 295.571 343.939 294.315C344.449 293.06 345.198 291.919 346.141 290.958C347.084 289.997 348.204 289.235 349.436 288.715C350.669 288.194 351.99 287.927 353.324 287.927Z" fill="#2F2E41"/>
<path d="M354.607 285.606L346.624 283.054L352.487 250.475L364.267 254.241L354.607 285.606Z" fill="#A0616A"/>
<path d="M341.639 278.908L357.032 283.829L353.991 293.703L328.905 285.683C329.305 284.387 329.951 283.183 330.807 282.14C331.663 281.098 332.712 280.238 333.895 279.609C335.077 278.98 336.37 278.594 337.698 278.474C339.027 278.353 340.366 278.501 341.639 278.908Z" fill="#2F2E41"/>
<path d="M357.328 272.49C356.961 272.49 356.598 272.422 356.255 272.291L350.101 269.94C349.41 269.673 348.836 269.163 348.483 268.502C348.131 267.84 348.023 267.072 348.181 266.336C349.73 259.239 355.011 235.074 357.902 222.113C361.332 206.739 411.361 203.882 413.489 203.768L413.663 203.759L419.291 210.964C421.325 217.623 420.68 222.817 417.375 226.402C407.732 236.862 378.94 230.372 375.506 229.55L360.203 270.475C359.98 271.068 359.586 271.578 359.072 271.937C358.559 272.297 357.951 272.49 357.328 272.49Z" fill="#2F2E41"/>
<path d="M366.198 277.356C365.832 277.356 365.468 277.288 365.126 277.157L358.971 274.806C358.28 274.539 357.706 274.029 357.354 273.368C357.001 272.706 356.894 271.938 357.051 271.202C358.6 264.105 363.881 239.94 366.773 226.979C370.202 211.605 420.231 208.749 422.359 208.635L422.534 208.625L428.162 215.83C430.195 222.489 429.551 227.683 426.246 231.268C416.602 241.728 387.81 235.238 384.377 234.416L369.073 275.342C368.85 275.934 368.456 276.444 367.943 276.803C367.429 277.163 366.821 277.356 366.198 277.356Z" fill="#2F2E41"/>
<path d="M348.393 177.238C348.619 177.546 348.821 177.872 348.996 178.212L382.651 181.824L387.495 175.057L398.475 181.171L388.96 197.592L347.685 186.871C346.644 187.905 345.318 188.592 343.885 188.84C342.451 189.088 340.977 188.885 339.659 188.259C338.341 187.633 337.241 186.613 336.506 185.334C335.771 184.056 335.435 182.58 335.544 181.102C335.652 179.625 336.2 178.216 337.113 177.063C338.027 175.91 339.263 175.068 340.658 174.649C342.053 174.229 343.54 174.252 344.922 174.715C346.303 175.177 347.514 176.057 348.393 177.238L348.393 177.238Z" fill="#A0616A"/>
<path d="M426.6 218.588C426.113 218.586 425.634 218.467 425.202 218.239C418.472 214.753 405.368 208.716 393.216 207.453C392.8 207.411 392.398 207.281 392.034 207.072C391.67 206.862 391.353 206.578 391.104 206.236C390.85 205.891 390.668 205.496 390.57 205.076C390.472 204.656 390.46 204.22 390.535 203.796C391.632 197.612 394.147 181.865 393.823 169.245C393.727 165.364 394.931 161.566 397.235 158.475C399.54 155.384 402.808 153.184 406.503 152.236C408.727 151.638 410.986 151.184 413.267 150.877C415.888 150.539 418.551 150.831 421.041 151.729C423.532 152.628 425.781 154.109 427.609 156.052C429.437 157.996 430.793 160.348 431.568 162.922C432.343 165.495 432.516 168.218 432.072 170.871C429.905 183.95 427.721 202.217 429.619 214.968C429.706 215.539 429.637 216.124 429.418 216.658C429.199 217.191 428.839 217.653 428.378 217.991C427.863 218.377 427.24 218.585 426.6 218.588Z" fill="white"/>
<path d="M394.446 185.323C394.026 185.322 393.611 185.234 393.227 185.063L384.46 181.197C383.713 180.867 383.125 180.248 382.826 179.477C382.526 178.706 382.539 177.845 382.861 177.084L389.638 161.135C390.047 160.171 390.639 159.298 391.379 158.567C392.119 157.836 392.993 157.261 393.951 156.874C394.91 156.487 395.934 156.296 396.964 156.313C397.995 156.329 399.013 156.552 399.959 156.97C400.905 157.387 401.761 157.99 402.478 158.744C403.195 159.498 403.76 160.389 404.139 161.366C404.518 162.343 404.704 163.386 404.688 164.436C404.671 165.486 404.451 166.522 404.041 167.486L397.264 183.435C397.026 183.995 396.632 184.472 396.131 184.807C395.631 185.143 395.045 185.322 394.446 185.323V185.323Z" fill="white"/>
<path d="M414.514 145.452C423.77 145.452 431.273 137.807 431.273 128.378C431.273 118.948 423.77 111.303 414.514 111.303C405.258 111.303 397.754 118.948 397.754 128.378C397.754 137.807 405.258 145.452 414.514 145.452Z" fill="#A0616A"/>
<path d="M397.453 119.989C405.391 124.926 414.341 127.93 423.605 128.768L420.848 125.403C422.855 126.159 424.968 126.586 427.106 126.669C429.242 126.635 431.48 125.797 432.692 124.005C433.233 123.114 433.554 122.103 433.628 121.059C433.703 120.014 433.528 118.967 433.119 118.006C432.279 116.089 430.971 114.424 429.321 113.167C426.395 110.809 422.942 109.226 419.27 108.557C415.597 107.888 411.82 108.156 408.273 109.335C405.841 110.076 403.662 111.5 401.987 113.443C400.398 115.44 397.34 117.219 398.153 119.652L397.453 119.989Z" fill="#2F2E41"/>
<path d="M417.332 106.21C412.046 100.749 405.649 96.5349 398.592 93.8643C394.062 92.1546 389.132 91.0983 384.396 92.0692C379.66 93.0402 375.181 96.378 373.86 101.112C372.779 104.983 373.895 109.151 375.572 112.795C377.248 116.438 379.487 119.817 380.843 123.597C382.226 127.454 382.642 131.602 382.053 135.664C381.464 139.726 379.888 143.574 377.469 146.859C375.05 150.143 371.864 152.76 368.2 154.472C364.537 156.184 360.511 156.936 356.49 156.661C361.143 157.297 365.432 159.525 369.981 160.71C374.529 161.896 379.897 161.816 383.277 158.496C386.853 154.984 386.925 149.273 386.752 144.216C386.495 136.697 386.238 129.179 385.981 121.661C385.85 117.827 385.738 113.87 387.095 110.291C388.453 106.712 391.678 103.579 395.444 103.611C398.298 103.636 400.824 105.397 403.113 107.134C405.401 108.871 407.824 110.725 410.667 110.983C413.51 111.242 416.755 109.098 416.543 106.199" fill="#2F2E41"/>
<path d="M386.337 214.202C385.226 214.2 384.13 213.948 383.127 213.463C382.123 212.978 381.238 212.273 380.535 211.397C379.831 210.522 379.327 209.498 379.059 208.4C378.791 207.302 378.765 206.158 378.983 205.048C379.201 203.939 379.658 202.893 380.321 201.985C380.984 201.078 381.836 200.331 382.817 199.799C383.797 199.268 384.881 198.964 385.99 198.91C387.099 198.857 388.206 199.055 389.231 199.489H389.232C389.54 199.622 389.839 199.776 390.127 199.951L420.656 185.988L421.514 177.552L434.674 177.193L434.586 191.237C434.57 192.864 434.04 194.442 433.073 195.737C432.107 197.032 430.757 197.976 429.222 198.427L393.52 208.78C393.45 209.021 393.369 209.257 393.275 209.489C392.702 210.882 391.738 212.073 390.504 212.912C389.27 213.75 387.82 214.199 386.337 214.202V214.202Z" fill="#A0616A"/>
<path d="M433.559 184.078C433.185 184.271 432.776 184.383 432.357 184.409L422.822 185.006C422.009 185.056 421.21 184.775 420.601 184.226C419.991 183.677 419.62 182.904 419.569 182.076L418.522 164.73C418.457 163.681 418.595 162.629 418.93 161.635C419.264 160.641 419.787 159.723 420.47 158.935C421.153 158.147 421.981 157.504 422.908 157.043C423.835 156.581 424.842 156.311 425.871 156.246C426.901 156.182 427.933 156.324 428.909 156.667C429.884 157.009 430.783 157.544 431.556 158.24C432.328 158.937 432.958 159.782 433.409 160.727C433.861 161.672 434.125 162.699 434.186 163.748L435.233 181.094C435.269 181.703 435.13 182.31 434.833 182.84C434.536 183.37 434.093 183.8 433.559 184.078L433.559 184.078Z" fill="white"/>
<path d="M412.836 215.956H358.929C358.296 215.956 357.688 215.699 357.241 215.243C356.793 214.787 356.541 214.168 356.541 213.522C356.541 212.877 356.793 212.258 357.241 211.802C357.688 211.346 358.296 211.089 358.929 211.089H412.836C413.469 211.089 414.077 211.346 414.525 211.802C414.973 212.258 415.224 212.877 415.224 213.522C415.224 214.168 414.973 214.787 414.525 215.243C414.077 215.699 413.469 215.956 412.836 215.956Z" fill="#3F3D56"/>
<path d="M335.388 211.437V177.374C335.389 176.176 335.857 175.027 336.688 174.18C337.52 173.333 338.647 172.856 339.823 172.855H400.553C401.729 172.856 402.857 173.333 403.688 174.18C404.52 175.027 404.987 176.176 404.989 177.374V211.437C404.987 212.635 404.52 213.783 403.688 214.63C402.857 215.478 401.729 215.954 400.553 215.955H339.823C338.647 215.954 337.52 215.478 336.688 214.63C335.857 213.783 335.389 212.635 335.388 211.437Z" fill="#D5D5D5"/>
<path d="M370.188 198.576C372.449 198.576 374.282 196.709 374.282 194.405C374.282 192.102 372.449 190.234 370.188 190.234C367.927 190.234 366.094 192.102 366.094 194.405C366.094 196.709 367.927 198.576 370.188 198.576Z" fill="white"/>
<path d="M208.873 153.321C208.32 152.468 207.59 151.75 206.735 151.215C205.88 150.681 204.92 150.344 203.923 150.229C202.927 150.113 201.917 150.221 200.966 150.546C200.015 150.871 199.145 151.404 198.418 152.109L176.75 140.715L178.097 153.551L198.467 162.403C199.71 163.568 201.328 164.229 203.017 164.26C204.706 164.291 206.347 163.69 207.629 162.57C208.912 161.451 209.747 159.891 209.976 158.186C210.205 156.482 209.812 154.751 208.873 153.321H208.873Z" fill="#FFB8B8"/>
<path d="M189.616 158.488C189.224 158.671 188.798 158.768 188.367 158.773C187.936 158.778 187.508 158.69 187.113 158.515L166.531 149.419C159.494 146.31 153.804 140.703 150.521 133.641L139.701 110.373C138.903 109.328 138.314 108.132 137.969 106.855C137.625 105.578 137.53 104.245 137.692 102.93C137.853 101.616 138.268 100.347 138.911 99.1964C139.554 98.0454 140.414 97.0349 141.441 96.2227C142.468 95.4104 143.642 94.8124 144.895 94.4627C146.149 94.113 147.459 94.0186 148.748 94.1848C150.038 94.351 151.283 94.7745 152.412 95.4313C153.541 96.088 154.532 96.965 155.328 98.0121L174.347 133.962L191.909 147.477C192.412 147.866 192.785 148.402 192.979 149.014C193.172 149.626 193.177 150.284 192.992 150.898L191.268 156.57C191.083 157.178 190.72 157.715 190.228 158.107C190.04 158.258 189.834 158.386 189.616 158.488Z" fill="#CCCCCC"/>
<path d="M139.225 83.0082C148.481 83.0082 155.984 75.3639 155.984 65.9342C155.984 56.5044 148.481 48.8601 139.225 48.8601C129.969 48.8601 122.465 56.5044 122.465 65.9342C122.465 75.3639 129.969 83.0082 139.225 83.0082Z" fill="#FFB8B8"/>
<path d="M146.013 289.915H154.378L158.359 257.042H146.011L146.013 289.915Z" fill="#FFB8B8"/>
<path d="M170.513 297.828L144.221 297.829L144.22 287.48L160.354 287.479C163.048 287.479 165.632 288.569 167.537 290.51C169.442 292.451 170.513 295.083 170.513 297.828L170.513 297.828Z" fill="#2F2E41"/>
<path d="M118.719 289.915H127.084L131.064 257.042H118.717L118.719 289.915Z" fill="#FFB8B8"/>
<path d="M143.218 297.828L116.926 297.829L116.926 287.48L133.06 287.479C135.754 287.479 138.338 288.569 140.243 290.51C142.148 292.451 143.218 295.083 143.218 297.828L143.218 297.828Z" fill="#2F2E41"/>
<path d="M115.798 280.505C115.509 280.17 115.295 279.776 115.168 279.349C115.042 278.923 115.006 278.473 115.064 278.032L129.711 166.12L166.1 172.416L169.984 170.042L159.941 276.224C159.857 276.941 159.534 277.607 159.025 278.109C158.515 278.611 157.852 278.918 157.146 278.98L146.127 279.915C145.689 279.953 145.248 279.894 144.835 279.743C144.421 279.591 144.044 279.351 143.729 279.039C143.414 278.726 143.169 278.348 143.01 277.931C142.851 277.513 142.781 277.066 142.807 276.619L145.659 226.051C145.664 225.965 145.638 225.88 145.585 225.813C145.532 225.746 145.457 225.701 145.374 225.687C145.29 225.673 145.205 225.691 145.134 225.738C145.063 225.785 145.011 225.856 144.989 225.939L130.876 279.259C130.7 279.923 130.314 280.509 129.778 280.927C129.242 281.345 128.586 281.572 127.911 281.573H118.108C117.67 281.573 117.238 281.478 116.839 281.294C116.441 281.11 116.086 280.841 115.798 280.505Z" fill="#2F2E41"/>
<path d="M140.999 173.953C140.581 173.568 140.044 173.344 139.481 173.32C138.918 173.296 138.365 173.474 137.917 173.822L130.642 179.587C130.246 179.902 129.78 180.112 129.286 180.201C128.791 180.289 128.283 180.253 127.806 180.095C127.328 179.936 126.896 179.661 126.547 179.293C126.199 178.925 125.944 178.475 125.806 177.984C122.237 165.251 114.152 133.202 116.144 110.645C117.273 97.8593 128.111 88.1419 140.303 88.9572C148.638 89.5234 154.122 94.4221 156.602 103.517C162.69 125.847 169.381 166.808 170.661 174.793C170.762 175.412 170.677 176.048 170.416 176.618C170.156 177.187 169.733 177.663 169.203 177.983C165.761 180.088 161.828 181.216 157.813 181.248C152.955 181.248 147.13 179.525 140.999 173.953Z" fill="#CCCCCC"/>
<path d="M143.744 181.896C143.826 180.878 143.687 179.854 143.338 178.895C142.988 177.937 142.437 177.069 141.723 176.351C141.009 175.634 140.149 175.085 139.204 174.742C138.259 174.4 137.251 174.273 136.253 174.37L126.105 151.782L119.389 162.729L130.055 182.501C130.327 184.199 131.2 185.737 132.51 186.823C133.82 187.909 135.476 188.467 137.163 188.393C138.85 188.318 140.452 187.616 141.665 186.419C142.878 185.221 143.618 183.612 143.744 181.896H143.744Z" fill="#FFB8B8"/>
<path d="M125.462 173.855C125.043 173.753 124.649 173.562 124.307 173.294C123.964 173.027 123.681 172.689 123.476 172.303L112.79 152.206C109.136 145.335 108.056 137.346 109.751 129.725L115.332 104.613C115.337 103.289 115.598 101.979 116.1 100.758C116.603 99.5364 117.336 98.4279 118.26 97.4956C119.183 96.5634 120.277 95.8256 121.48 95.3245C122.684 94.8234 123.972 94.5688 125.272 94.5753C126.572 94.5818 127.857 94.8492 129.056 95.3622C130.254 95.8753 131.341 96.6239 132.256 97.5653C133.17 98.5067 133.893 99.6224 134.383 100.849C134.874 102.075 135.123 103.388 135.115 104.712L128.304 144.957L133.936 166.633C134.096 167.255 134.065 167.912 133.847 168.515C133.629 169.118 133.234 169.638 132.716 170.005L127.923 173.385C127.409 173.747 126.799 173.941 126.174 173.941C125.934 173.941 125.695 173.912 125.462 173.855Z" fill="#CCCCCC"/>
<path opacity="0.2" d="M133.756 121.685L127.614 148.101L136.485 170.346L130.344 148.796L133.756 121.685Z" fill="black"/>
<path d="M129.661 79.9743C128.17 80.0025 126.689 79.7294 125.302 79.1709C124.692 78.9313 124.059 78.7344 123.45 78.4947C118.072 76.3779 114.529 70.5427 114.402 64.6703C114.275 58.7979 117.26 53.0982 121.693 49.342C126.125 45.5857 131.867 43.6573 137.615 43.2113C143.808 42.7309 150.781 44.3308 154.241 49.5848C155.163 50.9833 155.807 52.68 155.261 54.3686C155.097 54.8782 154.805 55.3351 154.414 55.6936C152.869 57.0942 151.328 56.0411 149.753 55.948C147.588 55.8201 145.643 57.6057 144.944 59.6974C144.245 61.7892 144.553 64.092 145.117 66.2255C145.547 67.5093 145.818 68.8428 145.924 70.195C145.969 70.873 145.844 71.5517 145.56 72.1666C145.276 72.7816 144.843 73.3124 144.301 73.7089C142.948 74.5421 141.171 74.0599 139.817 73.228C138.463 72.3961 137.293 71.2395 135.831 70.6273C134.369 70.0152 132.404 70.151 131.553 71.5083C131.282 72.0022 131.099 72.5407 131.012 73.0993C130.249 76.641 130.424 76.4325 129.661 79.9742L129.661 79.9743Z" fill="#2F2E41"/>
<path d="M274.971 137.917C274.693 137.559 274.499 137.14 274.403 136.694C274.308 136.248 274.314 135.785 274.42 135.341C276.965 124.481 276.965 113.163 274.42 102.303C274.314 101.86 274.308 101.397 274.403 100.951C274.499 100.504 274.693 100.086 274.971 99.7276C275.243 99.3743 275.591 99.0888 275.988 98.893C276.384 98.6972 276.82 98.5961 277.261 98.5975H304.468C305.163 98.5989 305.835 98.8516 306.365 99.3106C306.894 99.7696 307.247 100.405 307.359 101.104C309.134 112.847 309.134 124.798 307.359 136.541C307.247 137.24 306.894 137.875 306.365 138.334C305.835 138.793 305.163 139.046 304.468 139.047H277.261C276.82 139.049 276.384 138.948 275.988 138.752C275.591 138.556 275.243 138.27 274.971 137.917Z" fill="#FFD600"/>
<path d="M232.882 40.164C232.604 39.8057 232.41 39.3875 232.315 38.9412C232.219 38.4949 232.225 38.0323 232.332 37.5887C234.877 26.7286 234.877 15.4107 232.332 4.55067C232.225 4.10701 232.219 3.64443 232.315 3.19815C232.41 2.75188 232.604 2.33367 232.882 1.97537C233.155 1.6219 233.502 1.33635 233.899 1.14044C234.296 0.944529 234.731 0.843439 235.172 0.844863H262.379C263.075 0.846291 263.747 1.09899 264.276 1.558C264.806 2.01701 265.158 2.65253 265.271 3.35143C267.045 15.0944 267.045 27.0449 265.271 38.7879C265.158 39.4868 264.806 40.1223 264.276 40.5813C263.747 41.0403 263.075 41.2931 262.379 41.2945H235.172C234.731 41.2959 234.296 41.1948 233.899 40.9989C233.502 40.803 233.155 40.5174 232.882 40.164Z" fill="#FFD600"/>
<path d="M299.83 72.8632C298.055 61.1203 298.055 49.1697 299.83 37.4268C299.943 36.7278 300.295 36.0923 300.824 35.6332C301.354 35.1742 302.026 34.9215 302.721 34.9202H329.929C330.37 34.9188 330.805 35.0198 331.202 35.2157C331.598 35.4117 331.946 35.6972 332.218 36.0507C332.496 36.409 332.69 36.8272 332.786 37.2735C332.881 37.7197 332.876 38.1823 332.769 38.626C330.224 49.486 330.224 60.8039 332.769 71.664C332.875 72.1076 332.881 72.5702 332.786 73.0165C332.69 73.4628 332.496 73.881 332.218 74.2393C331.946 74.5928 331.598 74.8783 331.202 75.0742C330.805 75.2701 330.37 75.3712 329.929 75.3698H302.721C302.026 75.3685 301.354 75.1158 300.824 74.6567C300.295 74.1977 299.943 73.5621 299.83 72.8632Z" fill="#FF515B"/>
<path d="M185.928 71.6259C184.154 59.8829 184.154 47.9324 185.928 36.1894C186.041 35.4905 186.393 34.855 186.923 34.396C187.452 33.937 188.124 33.6843 188.819 33.6829H216.027C216.468 33.6815 216.903 33.7825 217.3 33.9784C217.697 34.1744 218.044 34.4599 218.316 34.8134C218.594 35.1717 218.788 35.5899 218.884 36.0362C218.979 36.4824 218.974 36.945 218.867 37.3887C216.322 48.2487 216.322 59.5666 218.867 70.4267C218.974 70.8703 218.979 71.3329 218.884 71.7792C218.788 72.2255 218.594 72.6437 218.316 73.002C218.044 73.3554 217.697 73.641 217.3 73.8369C216.903 74.0328 216.468 74.1339 216.027 74.1325H188.819C188.124 74.131 187.452 73.8783 186.923 73.4193C186.393 72.9603 186.041 72.3248 185.928 71.6259Z" fill="#FF515B"/>
<path d="M192.657 153.428C192.375 153.063 192.177 152.638 192.08 152.185C191.983 151.731 191.989 151.261 192.097 150.81C194.684 139.771 194.684 128.267 192.097 117.229C191.989 116.778 191.983 116.308 192.08 115.854C192.177 115.4 192.375 114.975 192.657 114.611C192.934 114.252 193.287 113.962 193.691 113.762C194.094 113.563 194.536 113.461 194.984 113.462H222.639C223.345 113.464 224.029 113.72 224.567 114.187C225.105 114.653 225.463 115.3 225.577 116.01C227.381 127.946 227.381 140.093 225.577 152.029C225.463 152.739 225.105 153.385 224.567 153.852C224.029 154.318 223.345 154.575 222.639 154.576H194.984C194.536 154.578 194.094 154.475 193.691 154.276C193.287 154.077 192.934 153.787 192.657 153.428Z" fill="#2E47C9"/>
<path d="M0.660434 298.567H428.341C428.516 298.567 428.684 298.467 428.807 298.29C428.931 298.113 429 297.872 429 297.621C429 297.371 428.931 297.13 428.807 296.953C428.684 296.775 428.516 296.676 428.341 296.676H0.660434C0.573795 296.675 0.487961 296.7 0.407844 296.747C0.327728 296.794 0.254911 296.864 0.193559 296.952C0.132207 297.04 0.0835274 297.144 0.0503138 297.259C0.0171003 297.374 0 297.497 0 297.621C0 297.746 0.0171003 297.869 0.0503138 297.984C0.0835274 298.099 0.132207 298.203 0.193559 298.291C0.254911 298.379 0.327728 298.449 0.407844 298.496C0.487961 298.543 0.573795 298.567 0.660434 298.567Z" fill="#3F3D56"/>
<path d="M217.302 128.632H202.734C202.192 128.631 201.671 128.411 201.287 128.02C200.904 127.63 200.688 127.099 200.687 126.547V125.661C200.688 125.108 200.904 124.578 201.287 124.187C201.671 123.796 202.192 123.576 202.734 123.575H217.302C217.845 123.576 218.365 123.796 218.749 124.187C219.133 124.578 219.349 125.108 219.349 125.661V126.547C219.349 127.099 219.133 127.63 218.749 128.02C218.365 128.411 217.845 128.631 217.302 128.632Z" fill="white"/>
<path d="M217.302 137.354H202.734C202.192 137.354 201.671 137.134 201.287 136.743C200.904 136.352 200.688 135.822 200.687 135.269V134.383C200.688 133.83 200.904 133.3 201.287 132.909C201.671 132.518 202.192 132.298 202.734 132.298H217.302C217.845 132.298 218.365 132.518 218.749 132.909C219.133 133.3 219.349 133.83 219.349 134.383V135.269C219.349 135.822 219.133 136.352 218.749 136.743C218.365 137.134 217.845 137.354 217.302 137.354Z" fill="white"/>
<path d="M207.654 50.8372H193.376C192.834 50.8366 192.313 50.6167 191.93 50.2257C191.546 49.8347 191.33 49.3046 191.329 48.7517V47.9371C191.33 47.3841 191.546 46.854 191.93 46.4631C192.313 46.0721 192.834 45.8522 193.376 45.8516H207.654C208.197 45.8522 208.717 46.0721 209.101 46.4631C209.485 46.854 209.7 47.3841 209.701 47.9371V48.7517C209.7 49.3046 209.485 49.8347 209.101 50.2257C208.717 50.6167 208.197 50.8366 207.654 50.8372Z" fill="white"/>
<path d="M298.872 112.102H284.594C284.052 112.101 283.531 111.881 283.148 111.49C282.764 111.099 282.548 110.569 282.547 110.016V109.201C282.548 108.649 282.764 108.118 283.148 107.727C283.531 107.336 284.052 107.117 284.594 107.116H298.872C299.414 107.117 299.935 107.336 300.319 107.727C300.702 108.118 300.918 108.649 300.919 109.201V110.016C300.918 110.569 300.702 111.099 300.319 111.49C299.935 111.881 299.414 112.101 298.872 112.102Z" fill="white"/>
<path d="M298.872 122.4H284.594C284.052 122.399 283.531 122.179 283.148 121.788C282.764 121.397 282.548 120.867 282.547 120.314V119.499C282.548 118.947 282.764 118.416 283.148 118.025C283.531 117.634 284.052 117.415 284.594 117.414H298.872C299.414 117.415 299.935 117.634 300.319 118.025C300.702 118.416 300.918 118.947 300.919 119.499V120.314C300.918 120.867 300.702 121.397 300.319 121.788C299.935 122.179 299.414 122.399 298.872 122.4Z" fill="white"/>
<path d="M298.872 132.698H284.594C284.052 132.697 283.531 132.477 283.148 132.086C282.764 131.695 282.548 131.165 282.547 130.612V129.797C282.548 129.244 282.764 128.714 283.148 128.323C283.531 127.932 284.052 127.712 284.594 127.712H298.872C299.414 127.712 299.935 127.932 300.319 128.323C300.702 128.714 300.918 129.244 300.919 129.797V130.612C300.918 131.165 300.702 131.695 300.319 132.086C299.935 132.477 299.414 132.697 298.872 132.698Z" fill="white"/>
<path d="M207.654 59.4189H193.376C192.834 59.4183 192.313 59.1983 191.93 58.8074C191.546 58.4164 191.33 57.8863 191.329 57.3334V56.5184C191.33 55.9654 191.546 55.4353 191.93 55.0444C192.313 54.6534 192.834 54.4335 193.376 54.4329H207.654C208.197 54.4335 208.717 54.6534 209.101 55.0444C209.485 55.4353 209.7 55.9654 209.701 56.5184V57.3334C209.7 57.8863 209.485 58.4164 209.101 58.8074C208.717 59.1983 208.197 59.4183 207.654 59.4189Z" fill="white"/>
<path d="M256.905 16.0656H242.628C242.085 16.065 241.565 15.8451 241.181 15.4541C240.797 15.0631 240.581 14.533 240.581 13.9801V13.1651C240.581 12.6122 240.797 12.0821 241.181 11.6911C241.565 11.3001 242.085 11.0802 242.628 11.0796H256.905C257.448 11.0802 257.968 11.3001 258.352 11.6911C258.736 12.0821 258.951 12.6122 258.952 13.1651V13.9801C258.951 14.533 258.736 15.0631 258.352 15.4541C257.968 15.8451 257.448 16.065 256.905 16.0656Z" fill="white"/>
<path d="M322.053 52.933H307.775C307.232 52.9324 306.712 52.7125 306.328 52.3215C305.944 51.9306 305.729 51.4005 305.728 50.8475V50.0325C305.729 49.4796 305.944 48.9495 306.328 48.5585C306.712 48.1675 307.232 47.9476 307.775 47.947H322.053C322.595 47.9476 323.116 48.1675 323.499 48.5585C323.883 48.9495 324.099 49.4796 324.1 50.0325V50.8475C324.099 51.4005 323.883 51.9306 323.499 52.3215C323.116 52.7125 322.595 52.9324 322.053 52.933Z" fill="white"/>
</svg>
