<svg width="154" height="48" viewBox="0 0 154 48" fill="none" xmlns="http://www.w3.org/2000/svg">
<rect width="154" height="48" rx="24" fill="#FFD600"/>
<path d="M46.52 25.08C46.52 25.64 46.4267 26.18 46.24 26.7C46.0667 27.22 45.8 27.68 45.44 28.08C45.0933 28.4667 44.6533 28.7733 44.12 29C43.5867 29.24 42.9667 29.36 42.26 29.36C41.14 29.36 40.22 29.1 39.5 28.58C38.7933 28.06 38.3267 27.2333 38.1 26.1L40.46 25.54C40.54 26.0067 40.7267 26.38 41.02 26.66C41.3267 26.94 41.7 27.08 42.14 27.08C42.86 27.08 43.3467 26.84 43.6 26.36C43.8667 25.8667 44 25.1933 44 24.34V14.84H46.52V25.08ZM48.88 24.2C48.88 23.44 49.0133 22.7533 49.28 22.14C49.56 21.5133 49.9333 20.98 50.4 20.54C50.8667 20.1 51.42 19.76 52.06 19.52C52.7 19.28 53.38 19.16 54.1 19.16C54.82 19.16 55.5 19.28 56.14 19.52C56.78 19.76 57.3333 20.1 57.8 20.54C58.2667 20.98 58.6333 21.5133 58.9 22.14C59.18 22.7533 59.32 23.44 59.32 24.2C59.32 24.96 59.18 25.6533 58.9 26.28C58.6333 26.8933 58.2667 27.42 57.8 27.86C57.3333 28.3 56.78 28.64 56.14 28.88C55.5 29.12 54.82 29.24 54.1 29.24C53.38 29.24 52.7 29.12 52.06 28.88C51.42 28.64 50.8667 28.3 50.4 27.86C49.9333 27.42 49.56 26.8933 49.28 26.28C49.0133 25.6533 48.88 24.96 48.88 24.2ZM51.28 24.2C51.28 24.5733 51.34 24.9333 51.46 25.28C51.5933 25.6267 51.78 25.9333 52.02 26.2C52.2733 26.4667 52.5733 26.68 52.92 26.84C53.2667 27 53.66 27.08 54.1 27.08C54.54 27.08 54.9333 27 55.28 26.84C55.6267 26.68 55.92 26.4667 56.16 26.2C56.4133 25.9333 56.6 25.6267 56.72 25.28C56.8533 24.9333 56.92 24.5733 56.92 24.2C56.92 23.8267 56.8533 23.4667 56.72 23.12C56.6 22.7733 56.4133 22.4667 56.16 22.2C55.92 21.9333 55.6267 21.72 55.28 21.56C54.9333 21.4 54.54 21.32 54.1 21.32C53.66 21.32 53.2667 21.4 52.92 21.56C52.5733 21.72 52.2733 21.9333 52.02 22.2C51.78 22.4667 51.5933 22.7733 51.46 23.12C51.34 23.4667 51.28 23.8267 51.28 24.2ZM61.607 19.4H64.007V29H61.607V19.4ZM61.267 16.14C61.267 15.7533 61.407 15.42 61.687 15.14C61.9804 14.8467 62.347 14.7 62.787 14.7C63.227 14.7 63.5937 14.84 63.887 15.12C64.1937 15.3867 64.347 15.7267 64.347 16.14C64.347 16.5533 64.1937 16.9 63.887 17.18C63.5937 17.4467 63.227 17.58 62.787 17.58C62.347 17.58 61.9804 17.44 61.687 17.16C61.407 16.8667 61.267 16.5267 61.267 16.14ZM66.7623 19.4H69.0423V20.94H69.0823C69.309 20.46 69.6557 20.0467 70.1223 19.7C70.589 19.34 71.2223 19.16 72.0223 19.16C72.6623 19.16 73.2023 19.2667 73.6423 19.48C74.0957 19.6933 74.4623 19.9733 74.7423 20.32C75.0223 20.6667 75.2223 21.0667 75.3423 21.52C75.4623 21.9733 75.5223 22.4467 75.5223 22.94V29H73.1223V24.14C73.1223 23.8733 73.109 23.58 73.0823 23.26C73.0557 22.9267 72.9823 22.62 72.8623 22.34C72.7557 22.0467 72.5823 21.8067 72.3423 21.62C72.1023 21.42 71.7757 21.32 71.3623 21.32C70.9623 21.32 70.6223 21.3867 70.3423 21.52C70.0757 21.6533 69.849 21.8333 69.6623 22.06C69.489 22.2867 69.3623 22.5467 69.2823 22.84C69.2023 23.1333 69.1623 23.44 69.1623 23.76V29H66.7623V19.4ZM95.7247 23.8C95.7247 24.6533 95.578 25.4267 95.2847 26.12C94.9914 26.8 94.5914 27.38 94.0847 27.86C93.578 28.34 92.978 28.7133 92.2847 28.98C91.5914 29.2333 90.838 29.36 90.0247 29.36C89.2114 29.36 88.458 29.2333 87.7647 28.98C87.0714 28.7133 86.4647 28.34 85.9447 27.86C85.438 27.38 85.038 26.8 84.7447 26.12C84.4647 25.4267 84.3247 24.6533 84.3247 23.8V14.84H86.8447V23.72C86.8447 24.0667 86.898 24.4333 87.0047 24.82C87.1114 25.1933 87.2847 25.54 87.5247 25.86C87.778 26.18 88.1047 26.4467 88.5047 26.66C88.918 26.86 89.4247 26.96 90.0247 26.96C90.6247 26.96 91.1247 26.86 91.5247 26.66C91.938 26.4467 92.2647 26.18 92.5047 25.86C92.758 25.54 92.938 25.1933 93.0447 24.82C93.1514 24.4333 93.2047 24.0667 93.2047 23.72V14.84H95.7247V23.8ZM103.718 22.06C103.252 21.4067 102.625 21.08 101.838 21.08C101.518 21.08 101.205 21.16 100.898 21.32C100.592 21.48 100.438 21.74 100.438 22.1C100.438 22.3933 100.565 22.6067 100.818 22.74C101.072 22.8733 101.392 22.9867 101.778 23.08C102.165 23.1733 102.578 23.2733 103.018 23.38C103.472 23.4733 103.892 23.6267 104.278 23.84C104.665 24.04 104.985 24.32 105.238 24.68C105.492 25.04 105.618 25.5333 105.618 26.16C105.618 26.7333 105.492 27.22 105.238 27.62C104.998 28.0067 104.678 28.32 104.278 28.56C103.892 28.8 103.452 28.9733 102.958 29.08C102.465 29.1867 101.972 29.24 101.478 29.24C100.732 29.24 100.045 29.1333 99.4183 28.92C98.7916 28.7067 98.2316 28.32 97.7383 27.76L99.3383 26.26C99.6449 26.6067 99.9716 26.8933 100.318 27.12C100.678 27.3333 101.112 27.44 101.618 27.44C101.792 27.44 101.972 27.42 102.158 27.38C102.345 27.34 102.518 27.2733 102.678 27.18C102.838 27.0867 102.965 26.9733 103.058 26.84C103.165 26.6933 103.218 26.5267 103.218 26.34C103.218 26.0067 103.092 25.76 102.838 25.6C102.585 25.44 102.265 25.3133 101.878 25.22C101.492 25.1133 101.072 25.02 100.618 24.94C100.178 24.8467 99.7649 24.7067 99.3783 24.52C98.9916 24.32 98.6716 24.0467 98.4183 23.7C98.1649 23.3533 98.0383 22.8733 98.0383 22.26C98.0383 21.7267 98.1449 21.2667 98.3583 20.88C98.5849 20.48 98.8783 20.1533 99.2383 19.9C99.5983 19.6467 100.012 19.46 100.478 19.34C100.945 19.22 101.418 19.16 101.898 19.16C102.538 19.16 103.172 19.2733 103.798 19.5C104.425 19.7133 104.932 20.0867 105.318 20.62L103.718 22.06Z" fill="black"/>
</svg>
